<?xml version="1.0" encoding="utf-8"?>
<!-- Generator: Adobe Illustrator 27.0.0, SVG Export Plug-In . SVG Version: 6.00 Build 0)  -->
<svg version="1.1" id="Capa_1" xmlns="http://www.w3.org/2000/svg" xmlns:xlink="http://www.w3.org/1999/xlink" x="0px" y="0px"
	 viewBox="0 0 400 400" style="enable-background:new 0 0 400 400;" xml:space="preserve">
<g>
	<path d="M236.5,147.7c1.9-3.8,1.9-6.3,0-10l-0.2-0.5l-0.4-0.4c-2.6-2.6-7.9-2.6-10.5,0l-41,40.8c-1.3,1.3-2.1,3.2-2.1,5.2
		c0,2,0.7,3.9,2.1,5.2l41,40.8c0.6,0.6,2.6,2.4,5.2,2.4c1.7,0,2.8-0.8,3.5-1.4h0.7l1-1c2.7-2.7,2.7-7.7,0-10.4l-35.7-35.5l36.1-34.6
		L236.5,147.7z"/>
	<path d="M216.5,59.8c-68.9,0-125,55.8-125,124.3c0,69.3,56.1,125.7,125,125.7c68.9,0,125-56.4,125-125.7
		C341.5,115.6,285.4,59.8,216.5,59.8z M326.2,184.1c0,60.9-49.2,110.5-109.7,110.5c-61.3,0-111.1-49.6-111.1-110.5
		C105.4,125,156.2,75,216.5,75C277,75,326.2,124,326.2,184.1z"/>
</g>
</svg>
