<?xml version="1.0" encoding="utf-8"?>
<!-- Generator: Adobe Illustrator 27.0.0, SVG Export Plug-In . SVG Version: 6.00 Build 0)  -->
<svg version="1.1" id="Capa_1" xmlns="http://www.w3.org/2000/svg" xmlns:xlink="http://www.w3.org/1999/xlink" x="0px" y="0px"
	 viewBox="0 0 400 400" style="enable-background:new 0 0 400 400;" xml:space="preserve">
<g>
	<path d="M209.1,81.8c-67.4,0-124.3,56.9-124.3,124.3c0,69.3,55.8,125.7,124.3,125.7c69.3,0,125.7-56.4,125.7-125.7
		C334.9,137.5,278.5,81.8,209.1,81.8z M209.1,316.6C149,316.6,100,267,100,206.1C100,145.9,149,97,209.1,97
		c60.9,0,110.5,48.9,110.5,109.1C319.7,267,270.1,316.6,209.1,316.6z"/>
	<path d="M251.3,166.2c-1.3-2.2-3.3-3.5-5.6-3.5c-2.2,0-4.2,1.3-5.5,3.4l-31,29.7l-29.7-29.7c-1.3-2.2-3.3-3.4-5.5-3.4
		c-2.1,0-4,1.1-5.3,3c-1.9,1.3-3,3.2-3,5.3c0,2.2,1.3,4.3,3.4,5.5l29.7,29.7l-29.7,31c-2.1,1.3-3.4,3.3-3.4,5.5
		c0,1.9,0.9,3.7,2.6,4.9c0.7,1.4,2.2,2.6,5.7,2.6c0.5,0,2.9-0.1,5.2-2.4l30-31.3l31.3,31.3c1.8,1.8,2.6,2.4,5.2,2.4
		c4.1,0,5.6-1.8,6-3.4c1.9-2.8,1.6-7-0.8-9.4l-30-31.4l30-30C253.5,173.5,253.6,169,251.3,166.2z"/>
</g>
</svg>
