<?xml version="1.0" encoding="utf-8"?>
<!-- Generator: Adobe Illustrator 27.0.0, SVG Export Plug-In . SVG Version: 6.00 Build 0)  -->
<svg version="1.1" id="Capa_1" xmlns="http://www.w3.org/2000/svg" xmlns:xlink="http://www.w3.org/1999/xlink" x="0px" y="0px"
	 viewBox="0 0 400 400" style="enable-background:new 0 0 400 400;" xml:space="preserve">
<g>
	<path d="M200,202.2c-15.1,0-26.5,10.8-26.5,25.1c0,8.8,4.4,14.6,9.3,19.6V263c0,9.3,7.9,17.1,17.2,17.1c8.3,0,15.9-8.2,15.9-17.1
		v-16.2c4.9-5,9.3-10.8,9.3-19.6C225.2,213.2,214.1,202.2,200,202.2z M202.9,238.2l-1.4,0.7V263c0,2.7-0.5,2.7-1.4,2.7
		c-1.9,0-2.8-0.8-2.8-2.7v-24.1l-1.4-0.7c-4.7-2.3-7.9-6.8-7.9-11c0-4.9,5.3-10.7,12.1-10.7c5.3,0,10.8,5.4,10.8,10.7
		C210.8,232,208.2,235.5,202.9,238.2z"/>
	<path d="M270.4,165.2v-29.3c0-38.6-31.6-70.1-70.4-70.1c-38.9,0-71.8,32.1-71.8,70.1v29.3c-15.2,1.3-26.6,14.2-26.6,30.2v91.3
		c0,16,13.1,29,29.2,29h137.1c17.1,0,30.5-12.8,30.5-29v-91.3C298.4,179.7,286.2,166.5,270.4,165.2z M161.3,135.9
		c0-21.2,16.6-37.2,38.7-37.2c21.7,0,38.7,16.3,38.7,37.2v29.2h-77.4V135.9z M200,80.2c30.4,0,56,25.5,56,55.7v29.2h-4.2v-29.2
		c0-27.9-23.7-51.5-51.8-51.5c-29.3,0-53.1,23.1-53.1,51.5v29.2h-4.2v-29.2C142.7,105.2,168.4,80.2,200,80.2z M267.9,301.5H130.8
		c-7.9,0-14.8-6.8-14.8-14.7v-91.3c0-8.2,7.2-16,14.8-16h137.1c9.5,0,16.1,8.4,16.1,16v91.3C284,294.9,276.7,301.5,267.9,301.5z"/>
</g>
</svg>
