<?xml version="1.0" encoding="utf-8"?>
<!-- Generator: Adobe Illustrator 27.0.0, SVG Export Plug-In . SVG Version: 6.00 Build 0)  -->
<svg version="1.1" id="Capa_1" xmlns="http://www.w3.org/2000/svg" xmlns:xlink="http://www.w3.org/1999/xlink" x="0px" y="0px"
	 viewBox="80 80 400 400" style="enable-background:new 0 0 500 400;" xml:space="preserve">
<g>
	<g id="XMLID_00000056385252261785462440000010119452479725743503_">
		<g>
			<path d="M371.9,218.6v133.1c0,4.4-4.3,10.3-10.2,10.3c-210.7,0-210.7,0-210.7,0c-7.3,0-10.2-4.4-10.2-10.3
				c0-133.1,0-133.1,0-133.1C255.6,321,255.6,321,255.6,321C371.9,218.6,371.9,218.6,371.9,218.6z"/>
			<path d="M366,209.9c-110.5,96.5-110.5,96.5-110.5,96.5c-110.5-96.5-110.5-96.5-110.5-96.5l110.5-97.9
				C366,209.9,366,209.9,366,209.9z"/>
		</g>
		<g>
		</g>
	</g>
</g>
</svg>
