<?xml version="1.0" encoding="utf-8"?>
<!-- Generator: Adobe Illustrator 27.0.0, SVG Export Plug-In . SVG Version: 6.00 Build 0)  -->
<svg version="1.1" id="Capa_1" xmlns="http://www.w3.org/2000/svg" xmlns:xlink="http://www.w3.org/1999/xlink" x="0px" y="0px"
	 viewBox="0 0 400 400" style="enable-background:new 0 0 400 400;" xml:space="preserve">
<g>
	<path d="M316.9,125.8c-4.6,0-8.3,3.7-8.3,8.3v147.2c0,7.1-5.8,12.8-12.8,12.8H94.3c-7.1,0-12.8-5.8-12.8-12.8V134.1
		c0-4.6-3.7-8.3-8.3-8.3c-4.6,0-8.3,3.7-8.3,8.3v147.2c0,16.3,13.2,29.5,29.5,29.5h201.4c16.3,0,29.5-13.2,29.5-29.5V134.1
		C325.3,129.5,321.5,125.8,316.9,125.8z"/>
	<path d="M148.8,112.5l1,1c2.7,2.7,7.6,2.7,10.3,0l26.6-26.6v121.5c0,4.6,3.7,8.3,8.3,8.3s8.3-3.7,8.3-8.3V86.8l26,27l0.5,0.3
		c3.7,1.9,6.2,1.9,9.9,0l0.5-0.2l0.4-0.4c2.6-2.6,2.6-7.7,0-10.3l-40.3-40.3c-1.3-1.3-3.2-2-5.1-2c-2,0-3.9,0.7-5.1,2l-40.3,40.3
		c-0.6,0.6-2.4,2.6-2.4,5.1c0,1.7,0.8,2.8,1.4,3.5V112.5z"/>
</g>
</svg>
