<?xml version="1.0" encoding="utf-8"?>
<!-- Generator: Adobe Illustrator 27.0.0, SVG Export Plug-In . SVG Version: 6.00 Build 0)  -->
<svg version="1.1" id="Capa_1" xmlns="http://www.w3.org/2000/svg" xmlns:xlink="http://www.w3.org/1999/xlink" x="0px" y="0px"
	 viewBox="0 0 400 400" style="enable-background:new 0 0 400 400;" xml:space="preserve">
<style type="text/css">
	.st0{fill-rule:evenodd;clip-rule:evenodd;}
</style>
<g>
	<path class="st0" d="M326.6,111.9c-39.8,0-39.8,0-39.8,0c-34.5,0-61,28.9-61,65.8c0-10.5,0-10.5,0-10.5l0,0c0,23.7,0,23.7,0,23.7
		c0,10.5,0,10.5,0,10.5c-39.8,0-39.8,0-39.8,0c0,39.5,0,39.5,0,39.5c39.8,0,39.8,0,39.8,0c0,121.1,0,121.1,0,121.1
		c50.4,0,50.4,0,50.4,0c0-121.1,0-121.1,0-121.1c50.4,0,50.4,0,50.4,0c0-39.5,0-39.5,0-39.5c-50.4,0-50.4,0-50.4,0
		c0-10.5,0-10.5,0-10.5c0-23.7,0-23.7,0-23.7c0-10.5,5.3-15.8,10.6-15.8c39.8,0,39.8,0,39.8,0C326.6,111.9,326.6,111.9,326.6,111.9"
		/>
</g>
</svg>
