<?xml version="1.0" encoding="utf-8"?>
<!-- Generator: Adobe Illustrator 27.0.0, SVG Export Plug-In . SVG Version: 6.00 Build 0)  -->
<svg version="1.1" id="Capa_1" xmlns="http://www.w3.org/2000/svg" xmlns:xlink="http://www.w3.org/1999/xlink" x="0px" y="0px"
	 viewBox="0 0 400 400" style="enable-background:new 0 0 400 400;" xml:space="preserve">
<style type="text/css">
	.st0{fill-rule:evenodd;clip-rule:evenodd;fill:#E25C66;}
</style>
<g>
	<path class="st0" transform="translate(0,-50)" d="M173.5,100.4c-42.6,0-76.3,33.9-76.3,80.4c0,51.8,40.8,85.7,103,137.5c8.9,8.9,21.3,19.6,33.7,30.4
		c1.8,1.8,3.6,1.8,5.3,1.8c1.8,0,5.3,0,7.1-1.8c10.7-10.7,23.1-21.4,33.7-30.4c60.4-51.8,101.2-85.7,101.2-137.5
		c0-46.4-32-80.4-74.6-80.4c-16,0-30.2,3.6-42.6,14.3c-12.4,8.9-19.5,19.6-24.9,28.6c-3.6-8.9-12.4-19.6-24.9-28.6
		C201.9,104,187.7,100.4,173.5,100.4L173.5,100.4z"/>
</g>
</svg>
