<?xml version="1.0" encoding="utf-8"?>
<!-- Generator: Adobe Illustrator 27.0.0, SVG Export Plug-In . SVG Version: 6.00 Build 0)  -->
<svg version="1.1" id="Capa_1" xmlns="http://www.w3.org/2000/svg" xmlns:xlink="http://www.w3.org/1999/xlink" x="0px" y="0px"
	 viewBox="0 0 400 400" style="enable-background:new 0 0 400 400;" xml:space="preserve">
<style type="text/css">
	.st0{fill-rule:evenodd;clip-rule:evenodd;}
</style>
<g>
	<path class="st0" d="M134.3,79C91.7,79,58,112.9,58,159.3c0,51.8,40.8,85.7,103,137.5c8.9,8.9,21.3,19.6,33.7,30.4
		c1.8,1.8,3.6,1.8,5.3,1.8s5.3,0,7.1-1.8c10.7-10.7,23.1-21.4,33.7-30.4C301.2,245.1,342,211.1,342,159.3c0-46.4-32-80.4-74.6-80.4
		c-16,0-30.2,3.6-42.6,14.3c-12.4,8.9-19.5,19.6-24.9,28.6c-3.6-8.9-12.4-19.6-24.9-28.6C162.7,82.6,148.5,79,134.3,79L134.3,79z"/>
</g>
</svg>
