<?xml version="1.0" encoding="utf-8"?>
<!-- Generator: Adobe Illustrator 27.0.0, SVG Export Plug-In . SVG Version: 6.00 Build 0)  -->
<svg version="1.1" id="Capa_1" xmlns="http://www.w3.org/2000/svg" xmlns:xlink="http://www.w3.org/1999/xlink" x="0px" y="0px"
	 viewBox="0 0 400 400" style="enable-background:new 0 0 400 400;" xml:space="preserve">
<path d="M321.9,209.6c-0.4-5.2-1.3-10.4-2.4-15.5c-0.1-0.7-0.4-0.9-1.1-0.9c-38.2,0-76.5,0-114.7,0c-1,0-0.9-0.1-0.9,0.9
	c0,15.5,0,31,0,46.6c0,1.1-0.1,1,1,1c21.6,0,43.2,0,64.8,0c0.2,0,0.4,0,0.6,0c0.4,0,0.6,0.1,0.4,0.5c-0.2,0.9-0.4,1.8-0.6,2.6
	c-2.6,9.9-7.3,18.7-14.6,26c-6.9,7-15.2,11.8-24.4,14.9c-8.1,2.7-16.4,3.9-24.8,4.1c-10.2,0.3-20-1.2-29.5-5.1
	c-21.3-8.7-35.6-23.9-43.2-45.6c0-0.1-0.1-0.2-0.1-0.3c-2-6.1-3.1-12.3-3.5-18.7c-0.5-9.4,0.7-18.7,3.7-27.6
	c5.2-15.3,14.4-27.7,27.7-37c10.7-7.5,22.5-11.8,35.5-13c7.5-0.7,15-0.3,22.4,1.3c11.1,2.4,21.1,7.3,30,14.4c0.4,0.3,0.6,0.4,1,0
	c11.8-11.8,23.6-23.6,35.4-35.4c0.4-0.4,0.4-0.5,0-0.9c-3-2.6-6.1-5.1-9.4-7.4c-20-14.3-42.2-22.1-66.8-23.3
	c-10.3-0.5-20.5,0.3-30.6,2.3c-10.6,2.1-20.7,5.5-30.4,10.3c-14.3,7-26.7,16.4-37.4,28.2c-8,8.8-14.6,18.6-19.8,29.3
	c-7.5,15.5-11.6,31.9-12.4,49.2c-0.4,8.1,0,16.2,1.2,24.2c1.3,8.7,3.5,17.2,6.6,25.5c0.9,2.4,1.8,4.7,2.9,7c0.6,1.4,1.3,2.8,2,4.1
	c0,0,0,0,0,0c0,0,0,0.1,0.1,0.1c0,0,0,0.1,0.1,0.1c5.2,10.6,11.9,20.3,19.9,29.1c10.8,11.8,23.5,21.2,37.9,28.1
	c16.8,8.1,34.6,12.1,53.3,12.3c4.1,0,8.2-0.1,12.2-0.5c2.8-0.3,5.5-0.6,8.3-1c6-0.9,12-2.3,17.8-4.1c5.5-1.7,10.8-3.8,15.9-6.3
	c4.2-2,8.3-4.3,12.2-6.8c5.9-3.8,11.4-8.1,16.6-12.9c3.1-2.8,5.9-5.9,8.6-9.1c9.7-11.4,16.8-24.3,21.6-38.4c2.8-8.4,4.8-17,5.9-25.8
	c0.5-3.7,0.8-7.4,1-11.1C322.2,219.9,322.3,214.8,321.9,209.6z"/>
</svg>
