<?xml version="1.0" encoding="utf-8"?>
<!-- Generator: Adobe Illustrator 27.0.0, SVG Export Plug-In . SVG Version: 6.00 Build 0)  -->
<svg version="1.1" id="Capa_1" xmlns="http://www.w3.org/2000/svg" xmlns:xlink="http://www.w3.org/1999/xlink" x="0px" y="0px"
	 viewBox="0 0 400 400" style="enable-background:new 0 0 400 400;" xml:space="preserve">
<style type="text/css">
	.st0{fill-rule:evenodd;clip-rule:evenodd;}
</style>
<g>
	<path class="st0" d="M333.6,301.7c-7.9,0-7.9,0-7.9,0c-1.6-6.3-6.3-11-14.2-12.6c0-97.5,0-97.5,0-97.5c0-3.1,0-6.3-3.2-6.3
		c-15.8-7.9-15.8-7.9-15.8-7.9c15.8-9.4,15.8-9.4,15.8-9.4c3.2,0,3.2-3.1,3.2-6.3c0-37.7,0-37.7,0-37.7c7.9-3.1,12.6-7.9,14.2-14.2
		c7.9,0,7.9,0,7.9,0c4.7,0,7.9-3.1,7.9-7.9c0-3.1-3.2-6.3-7.9-6.3c-7.9,0-7.9,0-7.9,0c-3.2-7.9-11-14.2-20.5-14.2
		c-178,0-178,0-178,0c-9.5,0-17.3,6.3-22.1,14.2c-7.9,0-7.9,0-7.9,0c-4.7,0-7.9,3.1-7.9,6.3c0,4.7,3.2,7.9,7.9,7.9
		c7.9,0,7.9,0,7.9,0c3.2,6.3,7.9,11,14.2,14.2c0,97.5,0,97.5,0,97.5c0,3.1,1.6,4.7,4.7,6.3c15.8,7.9,15.8,7.9,15.8,7.9
		c-15.8,7.9-15.8,7.9-15.8,7.9c-3.2,1.6-4.7,3.1-4.7,6.3c0,39.3,0,39.3,0,39.3c-6.3,1.6-11,6.3-14.2,12.6c-7.9,0-7.9,0-7.9,0
		c-4.7,0-7.9,4.7-7.9,7.9c0,4.7,3.2,7.9,7.9,7.9c7.9,0,7.9,0,7.9,0c3.2,7.9,12.6,14.2,22.1,14.2c178,0,178,0,178,0
		c9.5,0,17.3-6.3,20.5-14.2c7.9,0,7.9,0,7.9,0c4.7,0,7.9-3.1,7.9-7.9C341.5,306.4,338.3,301.7,333.6,301.7L333.6,301.7z M119.4,102
		c0-3.1,4.7-6.3,7.9-6.3c178,0,178,0,178,0c3.2,0,6.3,3.1,6.3,6.3c0,4.7-3.2,7.9-6.3,7.9c-178,0-178,0-178,0
		C122.5,109.9,119.4,106.8,119.4,102L119.4,102z M135.1,253c25.2-11,25.2-11,25.2-11c3.2-3.1,4.7-4.7,4.7-6.3c0-3.1-1.6-6.3-4.7-7.9
		c-25.2-11-25.2-11-25.2-11c0-92.8,0-92.8,0-92.8c162.2,0,162.2,0,162.2,0c0,33,0,33,0,33c-25.2,12.6-25.2,12.6-25.2,12.6
		c-3.2,1.6-3.2,3.1-3.2,6.3c0,3.1,0,6.3,3.2,6.3c25.2,12.6,25.2,12.6,25.2,12.6c0,91.2,0,91.2,0,91.2c-162.2,0-162.2,0-162.2,0V253
		L135.1,253L135.1,253z M305.2,317.5c-178,0-178,0-178,0c-3.2,0-6.3-3.1-6.3-7.9s3.2-7.9,6.3-7.9c178,0,178,0,178,0
		c4.7,0,7.9,3.1,7.9,7.9C311.5,314.3,308.4,317.5,305.2,317.5L305.2,317.5z M171.4,153.9c89.8,0,89.8,0,89.8,0
		c4.7,0,6.3-3.1,6.3-6.3c0-4.7-3.2-7.9-6.3-7.9c-89.8,0-89.8,0-89.8,0c-4.7,0-7.9,3.1-7.9,7.9C165.1,150.8,168.2,153.9,171.4,153.9
		L171.4,153.9z M185.5,169.7c-3.2,0-6.3,3.1-6.3,6.3c0,4.7,3.2,7.9,6.3,7.9c45.7,0,45.7,0,45.7,0c4.7,0,7.9-3.1,7.9-7.9
		c0-3.1-3.2-6.3-7.9-6.3H185.5L185.5,169.7L185.5,169.7z M171.4,213.7c89.8,0,89.8,0,89.8,0c4.7,0,6.3-3.1,6.3-7.9
		c0-3.1-3.2-6.3-6.3-6.3c-89.8,0-89.8,0-89.8,0c-4.7,0-7.9,3.1-7.9,6.3C165.1,210.5,168.2,213.7,171.4,213.7L171.4,213.7z
		 M187.1,227.8c-4.7,0-7.9,3.1-7.9,7.9c0,3.1,3.2,6.3,7.9,6.3c44.1,0,44.1,0,44.1,0c4.7,0,7.9-3.1,7.9-6.3c0-4.7-3.2-7.9-7.9-7.9
		H187.1L187.1,227.8L187.1,227.8z M261.1,257.7c-89.8,0-89.8,0-89.8,0c-3.2,0-6.3,3.1-6.3,6.3c0,4.7,3.2,7.9,6.3,7.9
		c89.8,0,89.8,0,89.8,0c4.7,0,6.3-3.1,6.3-7.9C267.4,260.8,265.9,257.7,261.1,257.7L261.1,257.7z"/>
</g>
</svg>
