<?xml version="1.0" encoding="utf-8"?>
<!-- Generator: Adobe Illustrator 27.0.0, SVG Export Plug-In . SVG Version: 6.00 Build 0)  -->
<svg version="1.1" id="Capa_1" xmlns="http://www.w3.org/2000/svg" xmlns:xlink="http://www.w3.org/1999/xlink" x="0px" y="0px"
	 viewBox="0 0 400 400" style="enable-background:new 0 0 400 400;" xml:space="preserve">
<path d="M313,83.1H124.3c-22.6,0-41.1,19.2-41.1,42.8v164.3c0,23.6,18.4,42.8,41.1,42.8H313c22.6,0,41-19.2,41-42.8V125.9
	C354.1,102.3,335.7,83.1,313,83.1z M139.4,295c-8.3,0-15.4-6.2-15.4-14.9c0-9.9,7.1-16.1,15.4-16.1c8.3,0,14.2,6.2,14.2,16.1
	C153.6,288.8,147.7,295,139.4,295z M139.4,225.4c-8.3,0-15.4-7.4-15.4-16.1s7.1-16.1,15.4-16.1c8.3,0,14.2,7.4,14.2,16.1
	S147.7,225.4,139.4,225.4z M139.4,153.4c-8.3,0-15.4-7.4-15.4-16.1c0-8.7,7.1-16.1,15.4-16.1c8.3,0,14.2,7.4,14.2,16.1
	C153.6,146,147.7,153.4,139.4,153.4z M302.7,291.2c0,0,0,0-117.2,0c-7.1,0-10.7-5-10.7-11.2c0-6.2,3.6-11.2,10.7-11.2
	c0,0,0,0,117.2,0c7.1,0,10.7,5,10.7,11.2C313.4,286.3,309.8,291.2,302.7,291.2z M302.7,219.2c0,0,0,0-117.2,0
	c-7.1,0-10.7-5-10.7-11.2s3.6-11.2,10.7-11.2c0,0,0,0,117.2,0c7.1,0,10.7,5,10.7,11.2S309.8,219.2,302.7,219.2z M302.7,148.5
	c-117.2,0-117.2,0-117.2,0c-7.1,0-10.7-5-10.7-11.2c0-6.2,3.6-11.2,10.7-11.2c117.2,0,117.2,0,117.2,0c7.1,0,10.7,5,10.7,11.2
	C313.4,143.5,309.8,148.5,302.7,148.5z"/>
</svg>
