<?xml version="1.0" encoding="utf-8"?>
<!-- Generator: Adobe Illustrator 27.0.0, SVG Export Plug-In . SVG Version: 6.00 Build 0)  -->
<svg version="1.1" id="Capa_1" xmlns="http://www.w3.org/2000/svg" xmlns:xlink="http://www.w3.org/1999/xlink" x="0px" y="0px"
	 viewBox="0 0 400 400" style="enable-background:new 0 0 400 400;" xml:space="preserve">
<style type="text/css">
	.st0{fill-rule:evenodd;clip-rule:evenodd;}
</style>
<g>
	<g>
		<path class="st0" d="M160.6,146.4c0-6.2,3.6-11.2,10.7-11.2c117.5,0,117.5,0,117.5,0c7.1,0,10.7,5,10.7,11.2s-3.6,11.2-10.7,11.2
			c-117.5,0-117.5,0-117.5,0C164.1,157.5,160.6,152.6,160.6,146.4L160.6,146.4z M288.7,206c-117.5,0-117.5,0-117.5,0
			c-7.1,0-10.7,5-10.7,11.2c0,6.2,3.6,11.2,10.7,11.2c117.5,0,117.5,0,117.5,0c7.1,0,10.7-5,10.7-11.2
			C299.4,210.9,295.8,206,288.7,206L288.7,206z M288.7,278c-117.5,0-117.5,0-117.5,0c-7.1,0-10.7,5-10.7,11.2
			c0,6.2,3.6,11.2,10.7,11.2c117.5,0,117.5,0,117.5,0c7.1,0,10.7-5,10.7-11.2C299.4,282.9,295.8,278,288.7,278L288.7,278z
			 M125,202.2c-8.3,0-15.4,7.4-15.4,16.1c0,8.7,7.1,16.1,15.4,16.1s14.2-7.4,14.2-16.1C139.2,209.7,133.3,202.2,125,202.2L125,202.2
			z M125,130.2c-8.3,0-15.4,7.4-15.4,16.1c0,8.7,7.1,16.1,15.4,16.1s14.2-7.4,14.2-16.1C139.2,137.7,133.3,130.2,125,130.2
			L125,130.2z M125,273c-8.3,0-15.4,6.2-15.4,16.1c0,8.7,7.1,14.9,15.4,14.9s14.2-6.2,14.2-14.9C139.2,279.2,133.3,273,125,273
			L125,273z"/>
	</g>
	<path d="M299.1,342.1H109.9c-22.7,0-41.2-19.2-41.2-42.8V135c0-23.6,18.5-42.8,41.2-42.8h189.1c22.7,0,41.2,19.2,41.2,42.8v164.3
		C340.2,322.9,321.8,342.1,299.1,342.1z M109.9,108.4c-14.1,0-25.6,11.9-25.6,26.6v164.3c0,14.7,11.5,26.6,25.6,26.6h189.1
		c14.1,0,25.6-11.9,25.6-26.6V135c0-14.7-11.5-26.6-25.6-26.6H109.9z"/>
</g>
</svg>
