<?xml version="1.0" encoding="utf-8"?>
<!-- Generator: Adobe Illustrator 27.0.0, SVG Export Plug-In . SVG Version: 6.00 Build 0)  -->
<svg version="1.1" id="Capa_1" xmlns="http://www.w3.org/2000/svg" xmlns:xlink="http://www.w3.org/1999/xlink" x="0px" y="0px"
	 viewBox="0 0 400 400" style="enable-background:new 0 0 400 400;" xml:space="preserve">
<style type="text/css">
	.st0{fill-rule:evenodd;clip-rule:evenodd;}
</style>
<g>
	<path class="st0" d="M54.9,115.8c0,200.4,0,200.4,0,200.4c0,5.3,5.3,8.9,8.9,8.9h2.5c0.7,0,1.4-0.1,2.1-0.4l66.8-28.3
		c2-0.8,3.2-2.8,3.2-4.9V84.7c0-3.8-3.8-6.4-7.3-4.9l-70.8,28.9C58.5,108.7,54.9,112.2,54.9,115.8L54.9,115.8z M102.9,190.2
		c1.8-5.3,5.3-10.6,10.7-16c1.8-1.8,3.6-1.8,5.3-1.8c6.9,0,12.1,8.3,6,13.7c-0.4,0.4-0.7,0.8-1,1.2c-1.9,3.3-5.1,6.6-6.7,9.9
		c-1.8,3.5-3.6,5.3-7.1,5.3C104.6,202.7,99.3,197.3,102.9,190.2L102.9,190.2z M88.7,231l3.5-8.6c0.1-0.2,0.1-0.3,0.2-0.5
		c1.7-3.4,3.5-5.1,7-5.1c5.2,0,10.4,3.4,9,10.2c-0.1,0.3-0.2,0.6-0.3,0.8l-3.3,8.2c-0.1,0.2-0.1,0.3-0.2,0.5c-1.7,3.4-3.5,5.1-7,5.1
		C92.2,241.7,86.9,236.3,88.7,231L88.7,231z M156.1,158.3h8.3c0.4,0,0.7,0,1.1,0.1c8.1,1.8,8.4,12.1,2.8,16.1c-1.8,1.3-4.1,1.2-6,0
		c-0.2-0.1-0.6-0.2-1-0.2l0,0c-2.9,0-5.3,2.4-5.3,5.3V291c0,2.3,1.5,4.3,3.6,5l72.8,24.7c3.5,1.2,7-1.4,7-5V231l0,0
		c-5.3,0-12.4-1.8-19.5-5.3c-8.9-3.5-5.3-16,3.6-16h1.7c1.1,0,2.2,0.4,3.1,1.1c1.4,1,3.1,1.6,4.7,2c3.3,0.7,6.5-1.8,6.5-5.2V109
		c0-2.3-1.5-4.3-3.6-5l-72.8-24.7c-3.5-1.2-7,1.4-7,5V158.3L156.1,158.3L156.1,158.3z M191.7,174.3c3.6,0,5.3,0,7.1,3.5
		c3.3,3.3,5.1,8.1,8.1,11.6c0.5,0.6,0.9,1.3,1.2,2c2.6,8.1-2.5,12.9-7.5,12.9c-1.7,0-5.2-1.7-8.7-6.8c-0.1-0.2-0.3-0.4-0.4-0.7
		c-1.7-3.4-3.4-6.8-5.2-8.5C181,181.4,186.3,174.3,191.7,174.3L191.7,174.3z M331.9,75h-2.5c-0.7,0-1.3,0.1-2,0.4L260.7,102
		c-2,0.8-3.4,2.8-3.4,4.9v208.3c0,3.8,3.8,6.4,7.3,4.9l69.6-28.4c0.9-0.4,1.7-1,2.2-1.7c1.4-1.9,2.5-4.4,2.5-5.9
		c0-202.1,0-202.1,0-202.1C339,78.5,335.5,75,331.9,75L331.9,75z M289.3,209.8c-3.3,3.3-8.2,8.2-13.2,11.7c-0.6,0.4-1.2,0.6-1.9,0.8
		c-1.5,0.4-3,1.6-4.4,1.6c-7.1,0-10.7-10.6-3.6-16c3.3-1.6,6.6-4.8,8.5-8.1c0.3-0.5,0.7-1,1.2-1.4c1.9-1.5,4.8-2.9,6.3-2.9
		C287.5,195.6,292.9,202.7,289.3,209.8L289.3,209.8z M305.3,169l-1.6,8.1c-0.1,0.5-0.3,1.1-0.6,1.5c-1.9,3.1-5.1,4.6-6.7,4.6
		c-5.2,0-10.3-5-9-11.7c0.1-0.4,0.3-0.9,0.5-1.3l3.2-6.5c1.8-3.5,3.6-5.3,7.1-5.3C303.5,158.3,308.8,163.7,305.3,169L305.3,169z"/>
</g>
</svg>
