<?xml version="1.0" encoding="utf-8"?>
<!-- Generator: Adobe Illustrator 27.0.0, SVG Export Plug-In . SVG Version: 6.00 Build 0)  -->
<svg version="1.1" id="Capa_1" xmlns="http://www.w3.org/2000/svg" xmlns:xlink="http://www.w3.org/1999/xlink" x="0px" y="0px"
	 viewBox="0 0 400 400" style="enable-background:new 0 0 400 400;" xml:space="preserve">
<style type="text/css">
	.st0{fill-rule:evenodd;clip-rule:evenodd;}
</style>
<g>
	<path class="st0" d="M338.9,76.8c0-1.8-1.8-1.8-3.6-1.8s-1.8,0-3.6,0c-79.9,32.1-79.9,32.1-79.9,32.1C152.4,75,152.4,75,152.4,75
		l0,0l0,0l0,0c0,0,0,0-1.8,0l0,0l0,0h-1.8l0,0l0,0l0,0c0,0,0,0-1.8,0l0,0c-83.5,33.9-83.5,33.9-83.5,33.9c-1.8,1.8-5.3,3.6-5.3,7.1
		c0,201.8,0,201.8,0,201.8c0,3.6,5.3,7.1,8.9,7.1c1.8,0,1.8,0,3.6,0c79.9-32.1,79.9-32.1,79.9-32.1c97.7,32.1,97.7,32.1,97.7,32.1
		c1.8,0,1.8,0,1.8,0h1.8l0,0h1.8h1.8c81.7-33.9,81.7-33.9,81.7-33.9c3.6,0,5.3-3.6,5.3-7.1c0-201.8,0-201.8,0-201.8
		C342.4,80.4,342.4,76.8,338.9,76.8L338.9,76.8z M141.8,278.6c-65.7,26.8-65.7,26.8-65.7,26.8c0-183.9,0-183.9,0-183.9
		c65.7-26.8,65.7-26.8,65.7-26.8V278.6L141.8,278.6L141.8,278.6z M243,214.3L243,214.3c-3.6,0-8.9-1.8-12.4-3.6c-1.8,0-3.6,0-3.6,0
		c-3.6,0-7.1,1.8-7.1,5.4c-1.8,3.6,0,8.9,3.6,10.7c5.3,1.8,12.4,3.6,17.8,3.6c1.8,0,1.8,0,1.8,0l0,0c0,75,0,75,0,75
		c-83.5-26.8-83.5-26.8-83.5-26.8c0-103.6,0-103.6,0-103.6c1.8,0,3.6,0,7.1,0l0,0c5.3,0,8.9-1.8,8.9-7.1c0-3.6-1.8-7.1-7.1-8.9
		c-3.6,0-5.3,0-8.9-1.8c0-62.5,0-62.5,0-62.5c83.5,28.6,83.5,28.6,83.5,28.6V214.3L243,214.3L243,214.3z M326.5,278.6
		c-65.7,26.8-65.7,26.8-65.7,26.8c0-183.9,0-183.9,0-183.9c65.7-26.8,65.7-26.8,65.7-26.8V278.6L326.5,278.6L326.5,278.6z
		 M99.2,241.1l1.8,1.8c3.6,0,7.1-3.6,8.9-7.1c1.8-7.1,1.8-7.1,1.8-7.1c1.8-5.4,0-8.9-5.3-10.7h-1.8c-3.6,0-7.1,1.8-8.9,5.4
		c-1.8,7.1-1.8,7.1-1.8,7.1C92.1,235.7,93.9,239.3,99.2,241.1L99.2,241.1z M193.3,198.2c1.8,1.8,1.8,1.8,1.8,3.6
		c1.8,3.6,5.3,5.4,7.1,5.4c1.8,0,3.6-1.8,5.3-1.8c3.6-1.8,5.3-7.1,1.8-10.7c0-1.8,0-1.8,0-3.6c-1.8-3.6-5.3-8.9-8.9-12.5
		c-1.8-1.8-3.6-3.6-5.3-3.6s-3.6,1.8-5.3,1.8c-3.6,3.6-5.3,8.9-1.8,12.5C189.7,192.9,193.3,194.6,193.3,198.2L193.3,198.2z
		 M116.9,175L116.9,175L116.9,175L116.9,175z M109.8,201.8c1.8,0,3.6,0,3.6,0c3.6,0,7.1-1.8,8.9-3.6c1.8-3.6,3.6-8.9,7.1-10.7
		c3.6-3.6,3.6-8.9,0-12.5c-1.8-1.8-3.6-1.8-5.3-1.8c-3.6,0-5.3,0-7.1,1.8c-3.6,5.4-7.1,10.7-10.7,16.1
		C104.5,194.6,106.3,200,109.8,201.8L109.8,201.8z M273.2,223.2c1.8,0,3.6,0,3.6-1.8c5.3-3.6,10.7-7.1,14.2-12.5
		c3.6-3.6,1.8-8.9-1.8-12.5c0,0-1.8-1.8-3.6-1.8c-3.6,0-5.3,1.8-7.1,3.6c-3.6,3.6-7.1,7.1-10.7,8.9
		C260.8,212.5,264.3,223.2,273.2,223.2L273.2,223.2z M296.3,182.1h1.8c3.6,0,7.1-1.8,7.1-5.4c3.6-7.1,3.6-7.1,3.6-7.1
		c1.8-3.6,0-8.9-5.3-10.7h-1.8c-3.6,0-7.1,1.8-7.1,5.4c-3.6,7.1-3.6,7.1-3.6,7.1C289.2,176.8,290.9,180.4,296.3,182.1L296.3,182.1z"
		/>
</g>
</svg>
