<?xml version="1.0" encoding="utf-8"?>
<!-- Generator: Adobe Illustrator 27.0.0, SVG Export Plug-In . SVG Version: 6.00 Build 0)  -->
<svg version="1.1" id="Capa_1" xmlns="http://www.w3.org/2000/svg" xmlns:xlink="http://www.w3.org/1999/xlink" x="0px" y="0px"
	 viewBox="0 0 400 400" style="enable-background:new 0 0 400 400;" xml:space="preserve">
<style type="text/css">
	.st0{fill-rule:evenodd;clip-rule:evenodd;}
</style>
<g>
	<path class="st0" d="M220.1,80.8c75,42.2,75,42.2,75,42.2c-150,0-150,0-150,0C220.1,80.8,220.1,80.8,220.1,80.8L220.1,80.8
		L220.1,80.8z M323.2,137c3.1,0,6.2,4.7,6.2,7.8c0,7.8,0,7.8,0,7.8c-218.8,0-218.8,0-218.8,0c0-7.8,0-7.8,0-7.8
		c0-3.1,3.1-7.8,6.2-7.8H323.2L323.2,137L323.2,137z M154.4,166.7c0,75,0,75,0,75c-15.6,0-15.6,0-15.6,0c0-75,0-75,0-75
		C154.4,166.7,154.4,166.7,154.4,166.7L154.4,166.7z M198.2,166.7c0,75,0,75,0,75c-29.7,0-29.7,0-29.7,0c0-75,0-75,0-75
		C198.2,166.7,198.2,166.7,198.2,166.7L198.2,166.7z M227.9,166.7c0,75,0,75,0,75c-15.6,0-15.6,0-15.6,0c0-75,0-75,0-75
		C227.9,166.7,227.9,166.7,227.9,166.7L227.9,166.7z M271.6,166.7c0,75,0,75,0,75c-29.7,0-29.7,0-29.7,0c0-75,0-75,0-75
		C271.6,166.7,271.6,166.7,271.6,166.7L271.6,166.7z M301.3,166.7c0,75,0,75,0,75c-15.6,0-15.6,0-15.6,0c0-75,0-75,0-75
		C301.3,166.7,301.3,166.7,301.3,166.7L301.3,166.7z M307.6,255.8c4.7,0,7.8,3.1,7.8,7.8c0,6.2,0,6.2,0,6.2
		c-190.6,0-190.6,0-190.6,0c0-6.2,0-6.2,0-6.2c0-4.7,3.1-7.8,6.2-7.8H307.6L307.6,255.8L307.6,255.8z M323.2,283.9
		c3.1,0,6.2,4.7,6.2,7.8c0,7.8,0,7.8,0,7.8c-218.8,0-218.8,0-218.8,0c0-7.8,0-7.8,0-7.8c0-3.1,3.1-7.8,6.2-7.8H323.2L323.2,283.9
		L323.2,283.9z M220.1,65.2c-1.6,0-3.1,0-3.1,1.6c-101.6,57.8-101.6,57.8-101.6,57.8c-10.9,0-20.3,9.4-20.3,20.3
		c0,14.1,0,14.1,0,14.1c0,4.7,4.7,7.8,7.8,7.8c21.9,0,21.9,0,21.9,0c0,75,0,75,0,75c-7.8,3.1-14.1,12.5-14.1,21.9c0,7.8,0,7.8,0,7.8
		c-7.8,3.1-14.1,10.9-14.1,20.3c0,15.6,0,15.6,0,15.6c0,4.7,3.1,7.8,7.8,7.8c234.4,0,234.4,0,234.4,0c3.1,0,6.2-3.1,6.2-7.8
		c0-15.6,0-15.6,0-15.6c0-9.4-6.2-17.2-14.1-20.3c0-7.8,0-7.8,0-7.8c0-9.4-6.2-17.2-14.1-21.9c0-75,0-75,0-75c21.9,0,21.9,0,21.9,0
		c3.1,0,6.2-3.1,6.2-6.2c0-15.6,0-15.6,0-15.6c0-10.9-7.8-20.3-20.3-20.3C223.2,66.7,223.2,66.7,223.2,66.7
		C223.2,65.2,221.6,65.2,220.1,65.2L220.1,65.2z"/>
</g>
</svg>
