<?xml version="1.0" encoding="utf-8"?>
<!-- Generator: Adobe Illustrator 27.0.0, SVG Export Plug-In . SVG Version: 6.00 Build 0)  -->
<svg version="1.1" id="Capa_1" xmlns="http://www.w3.org/2000/svg" xmlns:xlink="http://www.w3.org/1999/xlink" x="0px" y="0px"
	 viewBox="0 20 400 400" style="enable-background:new 0 0 400 400;" xml:space="preserve">
<style type="text/css">
	.st0{fill-rule:evenodd;clip-rule:evenodd;}
</style>
<g>
	<path class="st0" d="M271.2,119.1c-12.7,0-22.2,11.1-22.2,22.3c0,4.8,3.2,6.4,7.9,6.4c3.2,0,6.4-3.2,6.4-8c0-3.1,3-6.2,7.6-6.4
		c3.7-0.1,6.7,2.9,6.7,6.5c0,3.1-0.1,4.6-3.2,7.8c0,0,0,0,0,0c-6.3,3.2-11.1,9.6-11.1,19.1c0,2,1.3,4.6,3.4,6.3
		c6.4,5,11.2,2.1,10.9-6c-0.1-3.3,1.5-6.7,3.2-6.7c7.9-4.8,12.7-12.7,12.7-19.1C293.4,128.7,282.3,119.1,271.2,119.1L271.2,119.1z
		 M177.5,241.7c6.4-8,11.1-15.9,11.1-27.1c0-19.1-15.9-36.6-38.1-36.6c-19.1,0-36.5,17.5-36.5,36.6c0,11,3.1,20.5,10.9,26.9
		c0.1,0.1,0.1,0.2,0,0.3c-23.7,9.6-41,33.4-41,62v26.9c0,2.2,0.9,4.3,2.6,5.8c2.3,2.2,4.7,3.9,7,3.9c117.5,0,117.5,0,117.5,0
		c4.8,0,7.9-3.2,7.9-6.4c0-30.3,0-30.3,0-30.3C218.8,275.2,201.3,251.3,177.5,241.7L177.5,241.7z M152.1,192.4
		c12.7,0,22.2,11.1,22.2,22.3s-9.5,20.7-22.2,20.7c-12.7,0-22.2-9.6-22.2-20.7S141,192.4,152.1,192.4L152.1,192.4z M204.5,326.1
		H99.9c-0.1,0-0.2-0.1-0.2-0.2v-22.1c0-28.7,23.8-52.5,52.4-52.5s52.4,23.9,52.4,52.5V326.1L204.5,326.1L204.5,326.1z M271.2,90.5
		c-36.5,0-65.1,30.3-65.1,66.9c0,11.1,1.6,22.2,7.9,31.8c0,0,0,0.1,0,0.2l-9.5,23.8c0,0,0,0,0,0.1c0,1.6,0,4.8,3.2,7.9
		c0,0,0,0,0.1,0c0.3,0.2,3.3,1.6,6.3,1.6c0,0,0,0,0,0l26.9-6.4c0,0,0.1,0,0.1,0c9.5,4.8,20.6,6.3,30.1,6.3
		c36.5,0,66.7-30.3,66.7-65.3C337.9,119.1,307.7,90.5,271.2,90.5L271.2,90.5z M271.2,208.3c-9.5,0-17.5-1.6-25.4-6.4c0,0,0,0,0,0
		c-1.6-1.6-3.1-1.6-4.7-1.6c0,0,0,0-0.1,0l-15.6,4.7c-0.1,0-0.2-0.1-0.2-0.2l3.1-14c0,0,0,0,0,0c1.6-3.1,0-4.7,0-6.3
		c0,0,0-0.1,0-0.1c-4.8-8-7.9-17.5-7.9-27c0-30.3,22.2-52.5,50.8-52.5c28.6,0,52.4,22.3,52.4,52.5
		C323.6,184.4,299.8,208.3,271.2,208.3L271.2,208.3z M271.2,178c-4.8,0-7.9,3.2-7.9,8c0,3.1,3,7.7,7.5,7.9c3,0.2,5.6-2,6.4-4.9
		C278.8,182.6,275,178,271.2,178L271.2,178z"/>
</g>
</svg>
