<?xml version="1.0" encoding="utf-8"?>
<!-- Generator: Adobe Illustrator 27.0.0, SVG Export Plug-In . SVG Version: 6.00 Build 0)  -->
<svg version="1.1" id="Capa_1" xmlns="http://www.w3.org/2000/svg" xmlns:xlink="http://www.w3.org/1999/xlink" x="0px" y="0px"
	 viewBox="0 0 400 400" style="enable-background:new 0 0 400 400;" xml:space="preserve">
<style type="text/css">
	.st0{fill-rule:evenodd;clip-rule:evenodd;}
</style>
<g>
	<path class="st0" d="M274.7,90.6c9.4,0,18.8,6.2,21.9,15.6c1.6,15.6-7.8,34.4-21.9,34.4s-23.5-14.1-15.6-20.3
		c0-1.6,1.6-1.6,4.7-1.6h1.6c1.6,1.6,1.6,1.6,3.1,3.1c0,3.1,4.7,6.2,7.8,6.2h1.6c3.1-1.6,6.3-6.2,4.7-9.4
		c-1.6-6.2-6.3-12.5-12.5-14.1c-1.6,0-3.1,0-4.7,0c-6.3,0-12.5,1.6-15.6,4.7c-3.1,3.1-3.1,3.1-3.1,3.1c-92.3,0-92.3,0-92.3,0
		c-3.1-3.1-3.1-3.1-3.1-3.1c-3.1-3.1-9.4-4.7-14.1-4.7c-7.8,0-17.2,3.1-18.8,14.1c0,3.1,1.6,6.2,6.3,9.4l0,0c4.7,0,7.8-3.1,7.8-6.2
		c1.6-1.6,1.6-1.6,3.1-3.1c1.6,0,1.6,0,1.6,0c3.1,0,4.7,0,6.3,1.6c6.3,6.2-3.1,20.3-15.6,20.3c-15.6,0-25-18.8-20.3-34.4
		c4.7-10.9,11-15.6,21.9-15.6H274.7L274.7,90.6L274.7,90.6z M241.9,126.6c0,4.7,1.6,10.9,4.7,14.1c-95.4,0-95.4,0-95.4,0
		c3.1-3.1,6.3-9.4,6.3-14.1H241.9L241.9,126.6L241.9,126.6z M265.3,156.2c0,7.8,0,7.8,0,7.8l0,0c0,3.1-3.1,6.2-7.8,6.2
		c-117.3,0-117.3,0-117.3,0c-3.1,0-7.8-3.1-7.8-6.2c0-7.8,0-7.8,0-7.8C265.3,156.2,265.3,156.2,265.3,156.2L265.3,156.2z
		 M251.3,184.4c0,96.9,0,96.9,0,96.9c-15.6,0-15.6,0-15.6,0c0-73.4,0-73.4,0-73.4c0-4.7-3.1-7.8-6.3-7.8c-4.7,0-7.8,3.1-7.8,7.8
		c0,73.4,0,73.4,0,73.4c-15.6,0-15.6,0-15.6,0c0-73.4,0-73.4,0-73.4c0-4.7-3.1-7.8-6.3-7.8c-4.7,0-7.8,3.1-7.8,7.8
		c0,73.4,0,73.4,0,73.4c-14.1,0-14.1,0-14.1,0c0-73.4,0-73.4,0-73.4c0-4.7-4.7-7.8-7.8-7.8c-4.7,0-7.8,3.1-7.8,7.8
		c0,73.4,0,73.4,0,73.4c-14.1,0-14.1,0-14.1,0c0-96.9,0-96.9,0-96.9C251.3,184.4,251.3,184.4,251.3,184.4L251.3,184.4z M259.1,295.3
		c3.1,0,7.8,3.1,7.8,7.8c0,6.2,0,6.2,0,6.2c-133,0-133,0-133,0c0-6.2,0-6.2,0-6.2c0-4.7,3.1-7.8,7.8-7.8H259.1L259.1,295.3
		L259.1,295.3z M126.1,75c-15.6,0-29.7,10.9-34.4,28.1c-6.3,21.9,6.3,48.4,28.2,51.6c0,7.8,0,7.8,0,7.8c0,9.4,6.3,17.2,14.1,21.9
		c0,98.4,0,98.4,0,98.4c-7.8,1.6-14.1,10.9-14.1,20.3c0,14.1,0,14.1,0,14.1c0,4.7,3.1,7.8,7.8,7.8c147.1,0,147.1,0,147.1,0
		c3.1,0,6.3-3.1,6.3-7.8c0-14.1,0-14.1,0-14.1c0-9.4-6.3-17.2-14.1-20.3c0-98.4,0-98.4,0-98.4c7.8-3.1,14.1-12.5,14.1-21.9
		s0-9.4,0-9.4c21.9-3.1,34.4-29.7,26.6-51.6C302.9,85.9,288.8,75,273.2,75H126.1L126.1,75L126.1,75z"/>
</g>
</svg>
