<?xml version="1.0" encoding="utf-8"?>
<!-- Generator: Adobe Illustrator 27.0.0, SVG Export Plug-In . SVG Version: 6.00 Build 0)  -->
<svg version="1.1" id="Capa_1" xmlns="http://www.w3.org/2000/svg" xmlns:xlink="http://www.w3.org/1999/xlink" x="0px" y="0px"
	 viewBox="0 0 400 400" style="enable-background:new 0 0 400 400;" xml:space="preserve">
<style type="text/css">
	.st0{fill-rule:evenodd;clip-rule:evenodd;}
</style>
<g>
	<path class="st0" d="M188,82.3c20.3,0,35.9,15.6,35.9,35.9c0,3.1,3.1,6.2,6.2,7.8c12.5,1.6,23.4,14.1,23.4,29.7
		c0,7.8-3.1,14.1-9.4,20.3c-4.7,3.1-1.6,9.4,3.1,12.5c12.5,6.2,20.3,18.8,20.3,32.8c0,20.3-15.6,35.9-35.9,35.9
		c-37.4,0-37.4,0-37.4,0c0-48.4,0-48.4,0-48.4c28.1-26.6,28.1-26.6,28.1-26.6c3.1-3.1,3.1-7.8,0-10.9c-1.6-1.6-3.1-3.1-4.7-3.1
		c-1.6,0-3.1,1.6-4.7,3.1c-18.7,17.2-18.7,17.2-18.7,17.2c0-70.3,0-70.3,0-70.3c0-4.7-3.1-7.8-6.2-7.8c-4.7,0-7.8,3.1-7.8,7.8
		c0,40.6,0,40.6,0,40.6c-15.6-17.2-15.6-17.2-15.6-17.2c-1.6-1.6-4.7-3.1-6.2-3.1s-3.1,1.6-4.7,3.1c-3.1,4.7-3.1,7.8,0,10.9
		c26.5,26.6,26.5,26.6,26.5,26.6c0,39.1,0,39.1,0,39.1c-15.6-17.2-15.6-17.2-15.6-17.2c-1.6-1.6-4.7-1.6-6.2-1.6s-3.1,0-4.7,1.6
		c-3.1,3.1-3.1,7.8,0,10.9c26.5,26.6,26.5,26.6,26.5,26.6c0,18.8,0,18.8,0,18.8c-35.9,0-35.9,0-35.9,0c-20.3,0-37.4-15.6-37.4-35.9
		c0-14.1,9.4-26.6,21.8-32.8c4.7-3.1,4.7-9.4,1.6-12.5c-4.7-6.2-7.8-12.5-7.8-20.3c0-14.1,9.4-26.6,23.4-29.7
		c3.1-1.6,6.2-4.7,6.2-7.8C152.2,98,167.8,82.3,188,82.3L188,82.3z M245.7,82.3c20.3,0,37.4,15.6,35.9,37.5c0,3.1,3.1,6.2,6.2,7.8
		c14,1.6,25,14.1,25,28.1c0,7.8-3.1,15.6-9.4,20.3c-4.7,3.1-3.1,10.9,1.6,12.5c14,6.2,21.8,20.3,21.8,32.8
		c0,21.9-17.2,37.5-37.4,37.5c-21.8,0-21.8,0-21.8,0c9.4-9.4,14-23.4,14-37.5c0-15.6-7.8-31.2-20.3-42.2c3.1-6.2,6.2-14.1,6.2-23.4
		c0-18.8-12.5-35.9-29.6-40.6c0-10.9-4.7-20.3-10.9-28.1C233.3,82.3,239.5,82.3,245.7,82.3L245.7,82.3z M239.5,273
		c0,29.7,0,29.7,0,29.7c-45.2,0-45.2,0-45.2,0c0-29.7,0-29.7,0-29.7C239.5,273,239.5,273,239.5,273L239.5,273z M188,66.7
		c-26.5,0-48.4,20.3-49.9,46.9c-18.7,6.2-31.2,23.4-31.2,42.2c0,7.8,3.1,15.6,7.8,23.4c-14,9.4-21.8,25-21.8,42.2
		c0,28.1,23.4,51.6,51.5,51.6c35.9,0,35.9,0,35.9,0c0,29.7,0,29.7,0,29.7c-35.9,0-35.9,0-35.9,0c-3.1,0-6.2,3.1-6.2,6.2
		c0,4.7,3.1,7.8,6.2,7.8c146.6,0,146.6,0,146.6,0c3.1,0,6.2-3.1,6.2-7.8c0-3.1-3.1-6.2-6.2-6.2c-37.4,0-37.4,0-37.4,0
		c0-29.7,0-29.7,0-29.7c35.9,0,35.9,0,35.9,0c28.1,0,51.5-23.4,51.5-51.6c0-17.2-7.8-32.8-21.8-42.2c4.7-7.8,7.8-15.6,7.8-23.4
		c0-18.8-12.5-35.9-29.6-42.2c-3.1-25-25-46.9-51.5-46.9c-10.9,0-20.3,3.1-29.6,9.4C209.9,69.8,199,66.7,188,66.7L188,66.7z"/>
</g>
</svg>
