<?xml version="1.0" encoding="utf-8"?>
<!-- Generator: Adobe Illustrator 27.0.0, SVG Export Plug-In . SVG Version: 6.00 Build 0)  -->
<svg version="1.1" id="Capa_1" xmlns="http://www.w3.org/2000/svg" xmlns:xlink="http://www.w3.org/1999/xlink" x="0px" y="0px"
	 viewBox="0 0 400 400" style="enable-background:new 0 0 400 400;" xml:space="preserve">
<g>
	<path d="M200,230.8c43,0,77.9-35,77.9-77.9c0-43-35-77.9-77.9-77.9c-43,0-77.9,35-77.9,77.9C122.1,195.9,157,230.8,200,230.8z
		 M200,91.2c34,0,61.7,27.7,61.7,61.7S234,214.6,200,214.6s-61.7-27.7-61.7-61.7S166,91.2,200,91.2z"/>
	<path d="M258.7,237.6H141.3c-24.1,0-43.7,19.6-43.7,43.7c0,24.1,19.6,43.7,43.7,43.7h117.4c24.1,0,43.7-19.6,43.7-43.7
		C302.4,257.2,282.8,237.6,258.7,237.6z M258.7,308.8H141.3c-15.1,0-27.5-12.3-27.5-27.5s12.3-27.5,27.5-27.5h117.4
		c15.1,0,27.5,12.3,27.5,27.5S273.8,308.8,258.7,308.8z"/>
</g>
</svg>
