<?xml version="1.0" encoding="UTF-8"?>
<svg id="Capa_2" data-name="Capa 2" xmlns="http://www.w3.org/2000/svg" viewBox="0 0 100 100">
  <path d="m50,5.58c-9.51,0-19.01,2.86-26.86,8.06V5.38c0-1.59-1.34-2.88-2.98-2.88s-2.98,1.29-2.98,2.88v15.15c0,1.59,1.34,2.88,2.98,2.88h15.66c1.64,0,2.98-1.29,2.98-2.88s-1.34-2.88-2.98-2.88h-8.15c5.84-3.62,12.52-5.75,19.46-6.2v1.99c0,1.59,1.34,2.88,2.98,2.88s2.98-1.29,2.98-2.88v-1.97c20.28,1.45,36.61,17.09,38.3,36.71h-1.6c-1.64,0-2.98,1.29-2.98,2.88s1.34,2.88,2.98,2.88h1.68c-1.23,20.19-17.63,36.26-38.48,37.69v-1.41c0-1.59-1.34-2.88-2.98-2.88s-2.98,1.29-2.98,2.88v1.4c-20.6-1.42-36.99-17.28-38.46-37.2h1.86c1.64,0,2.98-1.29,2.98-2.88s-1.34-2.88-2.98-2.88h-4.95c-1.64,0-2.98,1.29-2.98,2.88,0,25.34,21.31,45.96,47.5,45.96s47.5-20.62,47.5-45.96S76.19,5.58,50,5.58Z"/>
  <path d="m6.24,43.04h0c.26.07.52.1.78.1,1.34,0,2.52-.88,2.87-2.13.27-.96.58-1.91.91-2.82.55-1.5-.27-3.15-1.82-3.68-1.55-.53-3.26.26-3.8,1.76-.38,1.05-.73,2.14-1.04,3.23-.21.74-.11,1.52.29,2.19.4.67,1.04,1.15,1.81,1.35Z"/>
  <path d="m10.67,31.14h0c.48.29,1.02.44,1.58.44,1.03,0,1.98-.51,2.53-1.35.54-.84,1.12-1.66,1.72-2.44.97-1.28.68-3.09-.64-4.03-.64-.46-1.43-.64-2.22-.53-.79.12-1.48.52-1.95,1.14-.69.91-1.35,1.85-1.96,2.8-.87,1.35-.45,3.13.94,3.97Z"/>
  <path d="m48.53,25.7c-1.64,0-2.98,1.29-2.98,2.88v23.65c0,.79.34,1.55.93,2.09l15.2,13.95c.56.51,1.28.79,2.05.79.81,0,1.6-.33,2.16-.9.55-.56.84-1.29.82-2.06s-.35-1.49-.93-2.02l-14.27-13.1v-22.41c0-1.59-1.34-2.88-2.98-2.88Z"/>
</svg>