<?xml version="1.0" encoding="UTF-8"?>
<svg id="Capa_2" data-name="Capa 2" xmlns="http://www.w3.org/2000/svg" viewBox="0 0 100 100">
  <defs>
    <style>
      .cls-1 {
        stroke: #000;
        stroke-miterlimit: 10;
        stroke-width: .75px;
      }
    </style>
  </defs>
  <path class="cls-1" d="m97.34,84.32c-3.56-6.59-8.43-12.22-14.21-16.64l3.09-6.4s0,0,0,0l9.45-19.6c.3-.63.06-1.38-.55-1.73l-1.41-.81,3.6-6.07c.36-.61.18-1.39-.42-1.79l-9.29-6.12c-.34-.22-.75-.29-1.14-.18-.39.11-.71.37-.88.73l-3.26,6.91-.22-.12c-.32-.18-.71-.23-1.06-.14-.36.1-.66.33-.84.65l-14.45,25.87c-.31-.09-.62-.19-.93-.27v-11.7c0-.74-.62-1.34-1.38-1.34h-2.99l-2.89-11.14c-.15-.6-.7-1.01-1.33-1.01h-1.13l-3.59-16.63c2.05-.67,3.54-2.56,3.54-4.78s-1.61-4.27-3.8-4.86v-3.29c0-.74-.62-1.34-1.38-1.34s-1.38.6-1.38,1.34v3.29c-2.19.59-3.8,2.54-3.8,4.86s1.59,4.25,3.75,4.85l-3.79,16.57h-1.45c-.64,0-1.2.43-1.34,1.04l-2.61,11.11h-2.96c-.76,0-1.38.6-1.38,1.34v12.11c-.13.04-.26.08-.39.12l-13.69-31.26s-.01-.02-.02-.03c0-.01,0-.03-.02-.04-.03-.05-.06-.09-.09-.14-.02-.02-.03-.05-.05-.07-.06-.08-.13-.15-.2-.21,0,0,0,0,0,0L6.38,15.74c-.4-.33-.95-.41-1.43-.21-.48.2-.8.65-.83,1.16l-1.08,19.05s0,.04,0,.07c0,.06,0,.12.01.18,0,.04.01.07.02.1.01.06.03.12.05.17,0,.02.01.05.02.07l13.67,32.26c-3.4,2.74-6.47,5.9-9.1,9.42-.07.07-.13.15-.18.24-1.86,2.52-3.5,5.22-4.89,8.09-.32.67-.03,1.47.66,1.79.19.09.39.13.59.13.52,0,1.01-.28,1.25-.77.75-1.56,1.59-3.06,2.49-4.51l.84,12.22c.03.43.26.81.63,1.04.22.14.48.21.74.21.17,0,.33-.03.49-.09l13.6-5.1,10.35,4.04c.35.14.75.13,1.09-.03.34-.16.61-.44.73-.79l3.08-9.02,13.62-7.16c.49-.25.77-.77.72-1.3l-1.09-11.65c-.06-.69-.66-1.22-1.37-1.22h-4.42l-4.97-3.95c2.89-.51,5.85-.78,8.85-.78,4.2,0,8.31.51,12.26,1.48.2.11.43.18.68.18,0,0,.01,0,.02,0,2.96.77,5.84,1.8,8.58,3.07l-7.3,2.17c-.39.11-.7.39-.86.75-.16.36-.15.78.03,1.13l1.75,3.42-4.39,4.77c-.26.28-.39.66-.35,1.04s.24.72.56.95l7.19,5.14c.32.23.74.32,1.13.22.39-.09.72-.34.91-.69l4.32-8.06,5.01,1.1v6.4l-13.31,6.13c-.34.15-.59.43-.71.78s-.1.72.07,1.04l3.25,6.35c.24.47.73.74,1.23.74.21,0,.42-.05.61-.14.68-.33.96-1.14.62-1.8l-2.63-5.12,12.83-5.91c.48-.22.79-.7.79-1.21v-8.32c0-.63-.45-1.17-1.07-1.31l-7.12-1.56c-.6-.14-1.23.15-1.52.69l-4.07,7.59-4.67-3.34,4-4.34c.38-.41.46-1,.21-1.5l-1.44-2.81,8.41-2.5c1.71.96,3.37,2.02,4.96,3.18.08.07.16.13.25.19,5.79,4.27,10.66,9.79,14.18,16.32.35.66,1.19.91,1.86.56.67-.35.93-1.16.58-1.81Zm-20.95-38.86l11.86,5.3-3.78,7.84-10.85-8.19,2.77-4.95Zm14.95-7.68l-1.92-1.1,2.74-5.27,2.13,1.4-2.95,4.97Zm-3.93-9.5l2.45,1.61-2.82,5.43-2.33-1.33,2.69-5.71Zm-5.47,7.24l10.71,6.12-3.22,6.69-11.71-5.23,4.23-7.57Zm-9.65,17.28l10.98,8.29-2.39,4.95c-3.84-2.63-8.03-4.75-12.47-6.31l3.87-6.94ZM47.46,12c0-1.3,1.09-2.36,2.42-2.36s2.42,1.06,2.42,2.36-1.09,2.36-2.42,2.36-2.42-1.06-2.42-2.36Zm2.5,10.62l2.33,10.8h-4.8l2.47-10.8Zm-5.64,13.49h9.66s.02,0,.03,0h1.16l2.45,9.47h-15.52l2.22-9.47Zm-3.99,12.16s.02,0,.04,0h21.7v9.35c-3.48-4.13-7.37-6.24-11.58-6.26-.03,0-.05,0-.08,0-5.88,0-10.64,4.09-12.72,6.21v-9.3h2.64ZM6.16,36.46l12.73-6.21,6.22,14.19-12.92,6.26-6.03-14.24Zm.54-16.93l10.4,8.59-11.2,5.46.8-14.05Zm6.54,33.66l12.95-6.28,5.74,13.11c-4.61,1.69-8.95,4-12.89,6.85l-5.8-13.68Zm32.02,13.31c.25.2.55.3.87.3h3.65l.89,9.54-13.3,6.99c-.31.16-.54.43-.65.76l-2.79,8.18-9.49-3.71c-.32-.13-.68-.13-1,0l-12.36,4.64-.95-13.86c6.9-9.11,16.88-15.64,28.09-18.43l7.06,5.6Zm-3.32-9.1c2.13-1.66,5.12-3.37,8.46-3.37.03,0,.05,0,.08,0,2.58.02,5.06,1.1,7.4,3.18-2.43-.33-4.89-.5-7.39-.5-2.89,0-5.74.24-8.55.69Z"/>
  <path class="cls-1" d="m15.31,34.93c-2.85,0-5.17,2.26-5.17,5.05s2.32,5.05,5.17,5.05,5.17-2.26,5.17-5.05-2.32-5.05-5.17-5.05Zm0,7.41c-1.33,0-2.42-1.06-2.42-2.36s1.09-2.36,2.42-2.36,2.42,1.06,2.42,2.36-1.09,2.36-2.42,2.36Z"/>
</svg>