<?xml version="1.0" encoding="UTF-8"?>
<svg id="Capa_2" data-name="Capa 2" xmlns="http://www.w3.org/2000/svg" viewBox="0 0 100 100">
  <path d="m88.79,30.26c.46,0,.92-.12,1.32-.35.61-.35,1.04-.92,1.22-1.59s.08-1.38-.27-1.98c-.37-.64-.76-1.26-1.16-1.88-.79-1.21-2.42-1.55-3.64-.78-1.22.78-1.57,2.4-.78,3.61.36.55.7,1.11,1.04,1.68.47.8,1.34,1.29,2.27,1.29Z"/>
  <path d="m90.86,39.32c.32,1.2.59,2.43.81,3.66h0c.22,1.26,1.31,2.17,2.59,2.17.15,0,.3-.01.45-.04,1.43-.24,2.39-1.6,2.15-3.01-.24-1.38-.54-2.76-.91-4.11-.37-1.39-1.82-2.22-3.22-1.85-1.4.37-2.24,1.8-1.87,3.19Z"/>
  <path d="m37.18,90.66c-1.2-.36-2.39-.78-3.56-1.25-.65-.26-1.37-.26-2.01.01-.65.27-1.15.78-1.42,1.42s-.26,1.36.02,2c.27.64.78,1.14,1.43,1.4,1.31.53,2.66,1,4,1.41.25.08.51.11.77.11,1.17,0,2.18-.74,2.52-1.85.42-1.38-.36-2.84-1.75-3.26Z"/>
  <path d="m52.12,92.42c-1.23.07-2.5.09-3.76.05-.7-.03-1.36.2-1.88.68-.52.48-.83,1.15-.85,1.85-.02.7.23,1.36.72,1.87.48.51,1.14.8,1.84.82.48.01.97.02,1.46.02.92,0,1.86-.03,2.79-.08.7-.04,1.35-.35,1.81-.87.47-.52.7-1.19.66-1.89-.04-.71-.35-1.35-.88-1.81-.52-.45-1.19-.7-1.9-.64Z"/>
  <path d="m94.97,51.83c-.7-.07-1.38.14-1.93.59-.54.44-.88,1.07-.94,1.77-.12,1.23-.29,2.48-.52,3.71-.13.69.02,1.38.42,1.95.4.57,1,.96,1.69,1.08.16.03.32.04.48.04,1.27,0,2.36-.9,2.59-2.14.25-1.37.45-2.78.58-4.17.13-1.43-.93-2.71-2.37-2.84Z"/>
  <path d="m66.75,88.95h0c-1.16.5-2.34.96-3.52,1.35-1.38.46-2.12,1.94-1.66,3.31.36,1.06,1.36,1.78,2.5,1.78.29,0,.57-.05.84-.14,1.33-.44,2.66-.95,3.96-1.52,1.33-.58,1.94-2.12,1.35-3.44-.58-1.31-2.13-1.92-3.47-1.34Z"/>
  <path d="m91.59,67.34h0c-1.31-.62-2.88-.08-3.51,1.22-.54,1.11-1.14,2.22-1.79,3.3-.36.6-.46,1.3-.29,1.98.17.68.6,1.25,1.2,1.6.41.24.88.37,1.35.37.92,0,1.79-.49,2.26-1.27.72-1.19,1.4-2.44,2.02-3.71.63-1.29.08-2.86-1.23-3.48Z"/>
  <path d="m79.24,80.64h0c-.91.87-1.86,1.7-2.84,2.48-.55.44-.89,1.06-.96,1.75-.07.69.13,1.37.57,1.92.5.62,1.25.97,2.05.97.6,0,1.19-.21,1.65-.58,1.1-.88,2.17-1.82,3.18-2.79.51-.48.79-1.13.8-1.83.01-.7-.25-1.36-.74-1.86-1.01-1.04-2.68-1.07-3.72-.07Z"/>
  <path d="m82.28,2.71c-1.45,0-2.63,1.17-2.63,2.61v7.38c-8.37-6.46-18.71-9.99-29.38-9.99C23.85,2.71,2.35,24.02,2.35,50.21c0,13.31,5.69,26.07,15.61,35.06.14.5.43.96.84,1.3.57.47,1.15.93,1.74,1.38.46.35,1.02.54,1.6.54.83,0,1.59-.37,2.09-1.02.88-1.14.66-2.78-.49-3.66l-.14-.11c-.16-.43-.42-.82-.78-1.12-9.66-8.06-15.2-19.86-15.2-32.36C7.62,26.9,26.75,7.93,50.26,7.93c9.2,0,18.12,2.95,25.44,8.35h-7.11c-1.45,0-2.63,1.17-2.63,2.61s1.18,2.61,2.63,2.61h13.69c1.45,0,2.63-1.17,2.63-2.61V5.32c0-1.44-1.18-2.61-2.63-2.61Z"/>
  <path d="m49.64,64.31c5.52,0,10-4.45,10-9.92s-4.49-9.92-10-9.92-10,4.45-10,9.92,4.49,9.92,10,9.92Zm0-14.62c2.61,0,4.74,2.11,4.74,4.7s-2.13,4.7-4.74,4.7-4.74-2.11-4.74-4.7,2.13-4.7,4.74-4.7Z"/>
  <path d="m18.37,52.86c-.72.99-.65,2.36.17,3.27,9.94,11.05,20.57,16.65,31.61,16.65.38,0,.75,0,1.13-.02,18.15-.63,30.43-16.11,30.94-16.77.8-1.02.73-2.45-.17-3.39-4.17-4.39-8.48-7.96-12.83-10.63l2.31-3.75c.37-.59.48-1.3.31-1.97-.16-.68-.59-1.25-1.18-1.61-.6-.36-1.31-.48-1.99-.31-.68.16-1.26.58-1.63,1.18l-2.44,3.96c-.98-.46-1.96-.87-2.93-1.23l1.68-4.67c.24-.66.2-1.37-.1-2-.3-.63-.83-1.1-1.49-1.34-.66-.24-1.38-.2-2.01.1-.64.3-1.12.83-1.35,1.48l-1.77,4.95c-1.24-.27-2.47-.46-3.66-.59v-5.92c0-1.44-1.18-2.61-2.63-2.61s-2.63,1.17-2.63,2.61v5.82s-.05,0-.08,0c-1.41.09-2.85.28-4.29.57l-1.73-4.83c-.23-.66-.71-1.19-1.35-1.49-.64-.3-1.35-.33-2.01-.1-.66.23-1.19.71-1.5,1.34-.3.63-.34,1.34-.1,2l1.61,4.49c-.72.26-1.44.55-2.16.85l-2.1-3.4c-.37-.59-.94-1.01-1.62-1.18s-1.39-.06-2,.31c-.6.36-1.02.94-1.19,1.61-.17.68-.05,1.38.31,1.97l1.9,3.09c-8.05,4.81-12.81,11.26-13.03,11.55Zm5.62,1.43c3.2-3.61,12.06-12.26,23.99-13.01,9.49-.61,19.12,3.85,28.59,13.21-3.5,3.73-13.14,12.64-25.49,13.05-9.27.31-18.36-4.14-27.09-13.25Z"/>
</svg>