<?xml version="1.0" encoding="UTF-8"?>
<svg id="Capa_1" data-name="Capa 1" xmlns="http://www.w3.org/2000/svg" viewBox="0 0 100 100">
  <defs>
    <style>
      .cls-1 {
        stroke-linecap: round;
        stroke-linejoin: round;
        stroke-width: 4px;
      }

      .cls-1, .cls-2, .cls-3 {
        fill: none;
        stroke: #000;
      }

      .cls-1, .cls-4 {
        fill-rule: evenodd;
      }

      .cls-2, .cls-3 {
        stroke-miterlimit: 10;
      }

      .cls-3 {
        stroke-dasharray: 0 0 8.78 8.78;
      }
    </style>
  </defs>
  <path class="cls-4" d="m83.1,2.5H16.9c-7.94,0-14.4,7.3-14.4,16.28v62.45c0,8.97,6.46,16.28,14.4,16.28h66.19c7.94,0,14.4-7.3,14.4-16.28V18.78c0-8.97-6.46-16.28-14.4-16.28ZM16.9,8.67h66.19c4.93,0,8.94,4.53,8.94,10.11v4.47H7.96v-4.47c0-5.57,4.01-10.11,8.94-10.11Zm75.14,19.58v43.5H7.96V28.25h84.08Zm-8.94,63.08H16.9c-4.93,0-8.94-4.53-8.94-10.11v-4.47h84.08v4.47c0,5.57-4.01,10.11-8.94,10.11Z"/>
  <g>
    <line class="cls-2" x1="7.5" y1="16" x2="11.5" y2="16"/>
    <line class="cls-3" x1="20.28" y1="16" x2="86.11" y2="16"/>
    <line class="cls-2" x1="90.5" y1="16" x2="94.5" y2="16"/>
  </g>
  <g>
    <line class="cls-2" x1="7.5" y1="84.5" x2="11.5" y2="84.5"/>
    <line class="cls-3" x1="20.28" y1="84.5" x2="86.11" y2="84.5"/>
    <line class="cls-2" x1="90.5" y1="84.5" x2="94.5" y2="84.5"/>
  </g>
  <polygon class="cls-1" points="63.25 50 38.75 35.85 38.75 64.15 63.25 50"/>
</svg>