<svg width="35" height="35" viewBox="0 0 35 35" fill="none" xmlns="http://www.w3.org/2000/svg">
<g filter="url(#filter0_i_620_6134)">
<mask id="mask0_620_6134" style="mask-type:alpha" maskUnits="userSpaceOnUse" x="0" y="0" width="35" height="35">
<path d="M17.4504 34.7985C27.0435 34.7985 34.8202 27.0086 34.8202 17.3993C34.8202 7.78991 27.0435 0 17.4504 0C7.85739 0 0.0806885 7.78991 0.0806885 17.3993C0.0806885 27.0086 7.85739 34.7985 17.4504 34.7985Z" fill="black"/>
</mask>
<g mask="url(#mask0_620_6134)">
<path d="M34.8201 17.3992C34.8201 27.0086 27.0435 34.7985 17.4505 34.7985C7.85734 34.7985 0.0806885 27.0086 0.0806885 17.3992C0.0806885 7.78992 7.85734 0 17.4505 0C27.0435 0 34.8201 7.78992 34.8201 17.3992Z" fill="#2765A0"/>
</g>
</g>
<path fill-rule="evenodd" clip-rule="evenodd" d="M16.8091 4.84388C20.8736 4.84388 23.9331 6.29294 25.9037 9.35438L23.4157 10.635C23.2187 10.737 23.3517 10.6708 23.3222 10.686C23.2877 10.5125 21.5141 9.61963 20.5436 9.37988C19.7362 9.18263 18.9097 9.08163 18.0802 9.07875C16.093 9.07188 14.1444 9.64663 12.459 10.737C10.8282 11.785 9.54062 13.3178 8.764 15.1353C8.7455 15.1716 8.729 15.2091 8.71475 15.2475C7.79337 18.1506 10.7986 20.0895 11.0647 21.7325C11.6657 25.4113 10.503 26.4828 8.54225 27.7278C11.0056 20.9009 5.03448 20.0385 5.03448 14.1863C5.03448 8.33387 10.641 4.83368 16.8585 4.83368L16.8091 4.84388Z" fill="#ED2633"/>
<path fill-rule="evenodd" clip-rule="evenodd" d="M17.755 24.6661C18.0407 26.3601 18.3117 28.3398 18.6024 29.9879C16.3657 30.1381 14.1202 30.0646 11.8972 29.7684C11.6164 29.7276 11.6755 28.8603 11.9317 28.748C12.917 28.2378 14.5822 28.498 14.6709 25.7886C15.7605 25.6386 16.8095 25.262 17.755 24.6815V24.6661Z" fill="white"/>
<path fill-rule="evenodd" clip-rule="evenodd" d="M18.7848 13.186C19.8886 13.1619 20.9844 13.385 21.9971 13.8404C23.0099 14.2956 23.9158 14.9723 24.6524 15.8239C24.2111 16.0098 23.7886 16.2405 23.3913 16.5126C21.8368 17.5771 20.4605 18.8973 19.3169 20.421L19.2184 20.3548C18.7716 20.0746 18.2413 19.974 17.7276 20.0719C17.214 20.1696 16.753 20.4593 16.4318 20.8856C16.1105 21.312 15.9515 21.8456 15.9848 22.3854C16.018 22.9251 16.2413 23.4334 16.6121 23.8141L16.6664 23.8651C16.8311 24.0251 17.019 24.1576 17.223 24.258C16.1244 24.8039 15.2229 25.1305 14.6661 25.0438C14.4296 24.9213 14.6316 24.4774 14.4149 24.3345C13.584 23.8238 12.8916 23.1035 12.4024 22.2406C11.913 21.3779 11.6426 20.4008 11.6165 19.4006C11.6165 15.9668 14.8238 13.186 18.7848 13.186Z" fill="white"/>
<path fill-rule="evenodd" clip-rule="evenodd" d="M23.8 17.1556C21.5584 18.6864 20.5336 20.1201 19.366 21.5742C19.2492 21.3492 19.077 21.1605 18.8667 21.027C18.6566 20.8935 18.4159 20.8201 18.1694 20.8144C17.9229 20.8086 17.6792 20.8706 17.4635 20.9942C17.2476 21.1177 17.0674 21.2984 16.941 21.5176C16.8145 21.7369 16.7465 21.987 16.7439 22.2424C16.7412 22.4977 16.804 22.7492 16.9257 22.9712C17.0476 23.1934 17.2241 23.378 17.4372 23.5062C17.6505 23.6346 17.8927 23.7021 18.1394 23.7019C18.9615 23.6761 19.7684 23.4655 20.5041 23.0845C22.2481 22.2222 24.3715 20.6507 26.4949 20.6302C28.0172 20.6302 27.4802 20.166 27.0615 19.3854C26.6772 18.7067 26.2535 17.8139 26.4111 17.3444C26.8052 16.1607 26.7511 15.8137 25.6574 16.2576C25.011 16.4847 24.3926 16.7895 23.8149 17.1659L23.8 17.1556Z" fill="white"/>
<path fill-rule="evenodd" clip-rule="evenodd" d="M21.1396 23.6816C21.4649 24.6664 22.1793 25.7481 23.0808 26.1256C23.0808 26.2311 23.0808 26.3434 23.0808 26.4624C23.0808 27.6206 23.2384 28.5696 24.0661 29.1615C25.1008 29.8911 25.6378 30.2075 23.0561 30.1463C20.2085 30.0749 18.6221 27.2533 18.5335 24.4215C19.4266 24.2708 20.3019 24.0229 21.1446 23.6816H21.1396Z" fill="white"/>
<path fill-rule="evenodd" clip-rule="evenodd" d="M18.0457 9.85939C19.6027 9.85452 21.1387 10.2304 22.529 10.9564L22.3369 11.4666C22.2286 11.4043 22.1147 11.353 21.997 11.3135C21.587 11.1384 21.127 11.1378 20.7166 11.3115C20.3062 11.4854 19.9785 11.8198 19.8046 12.2421C19.779 12.3218 19.7609 12.4038 19.7504 12.487C19.4231 12.4511 19.0941 12.4341 18.7651 12.436C16.7485 12.4105 14.7871 13.1183 13.2226 14.4361C13.0501 14.5841 12.8826 14.7423 12.7299 14.9055C12.6297 14.7569 12.5005 14.6316 12.3506 14.5381C11.9569 14.3298 11.4996 14.2906 11.0781 14.4291C10.6566 14.5676 10.3049 14.8726 10.0991 15.278C10.0187 15.4078 9.95262 15.5464 9.902 15.6913L9.37 15.5076C10.1266 13.7965 11.3494 12.3514 12.888 11.3499C14.4265 10.3483 16.214 9.83377 18.031 9.86964L18.0457 9.85939Z" fill="white"/>
<defs>
<filter id="filter0_i_620_6134" x="0.0806885" y="0" width="34.7394" height="35.7985" filterUnits="userSpaceOnUse" color-interpolation-filters="sRGB">
<feFlood flood-opacity="0" result="BackgroundImageFix"/>
<feBlend mode="normal" in="SourceGraphic" in2="BackgroundImageFix" result="shape"/>
<feColorMatrix in="SourceAlpha" type="matrix" values="0 0 0 0 0 0 0 0 0 0 0 0 0 0 0 0 0 0 127 0" result="hardAlpha"/>
<feOffset dy="1"/>
<feGaussianBlur stdDeviation="2"/>
<feComposite in2="hardAlpha" operator="arithmetic" k2="-1" k3="1"/>
<feColorMatrix type="matrix" values="0 0 0 0 0 0 0 0 0 0 0 0 0 0 0 0 0 0 0.25 0"/>
<feBlend mode="normal" in2="shape" result="effect1_innerShadow_620_6134"/>
</filter>
</defs>
</svg>
