<svg width="35" height="35" viewBox="0 0 35 35" fill="none" xmlns="http://www.w3.org/2000/svg">
<path d="M17.5004 34.7337C27.0468 34.7337 34.7857 27.0179 34.7857 17.5C34.7857 7.98213 27.0468 0.266357 17.5004 0.266357C7.95399 0.266357 0.215088 7.98213 0.215088 17.5C0.215088 27.0179 7.95399 34.7337 17.5004 34.7337Z" fill="white"/>
<path d="M20.2427 10.2749C22.3666 10.2749 24.088 8.55583 24.088 6.43536C24.088 6.36671 24.0861 6.29902 24.0823 6.23132H23.2063C23.1288 8.04288 21.5796 9.48926 19.6784 9.48926C18.6169 9.48926 17.6664 9.03828 17.018 8.32605L16.9396 8.40424C17.6119 9.52454 18.8398 10.2749 20.2427 10.2749Z" fill="#0084C9"/>
<path d="M18.4191 13.7464C16.4893 13.7464 14.7182 13.0914 13.3344 11.9997L13.1355 12.198C14.6398 13.6615 16.714 14.5663 19.0044 14.5663C23.5985 14.5663 27.3224 10.9289 27.3224 6.442C27.3224 6.3724 27.3214 6.30184 27.3195 6.23224H26.4435C26.3307 10.3998 22.7808 13.7464 18.4191 13.7464Z" fill="#A77BCA"/>
<path d="M19.0168 11.6126C17.545 11.6126 16.2033 11.0605 15.1858 10.1528L14.9955 10.3426C16.1144 11.582 17.7305 12.362 19.5293 12.362C22.9051 12.362 25.6421 9.61794 25.643 6.23224H24.7556C24.5691 9.23465 22.0712 11.6126 19.0168 11.6126Z" fill="#A6BBC8"/>
<path d="M27.9466 6.23132C27.6703 11.482 23.2626 15.6562 17.8671 15.6562C15.5557 15.6562 13.427 14.8906 11.7257 13.6024L11.4551 13.8732C13.2902 15.4989 15.7068 16.4866 18.3558 16.4866C24.0602 16.4866 28.6916 11.9053 28.7499 6.23228H27.9466V6.23132Z" fill="#009CA6"/>
<path d="M20.4827 8.38231C21.571 8.38231 22.4527 7.48225 22.4527 6.37243C22.4527 6.32476 22.4508 6.27804 22.447 6.23132H21.8627C21.7431 7.04843 21.0412 7.67675 20.192 7.67675C19.5111 7.67675 18.9249 7.27249 18.6571 6.69089L18.5548 6.79291C18.7461 7.70059 19.536 8.38231 20.4827 8.38231Z" fill="#00C1D5"/>
<path d="M6.25 20.1526C6.25 18.056 7.54198 16.4409 9.49954 16.4409C10.0628 16.4409 10.6442 16.5639 11.1884 16.8089L10.9388 17.8215C10.5697 17.5249 10.0523 17.3609 9.54449 17.3609C8.21522 17.3609 7.51329 18.6185 7.51329 20.0706C7.51329 21.6553 8.13202 22.8213 9.47946 22.8213C10.1068 22.8213 10.5132 22.6478 11.0306 22.2388L11.2802 23.2208C10.7169 23.6299 10.08 23.7529 9.35992 23.7529C7.40427 23.7519 6.25 22.3103 6.25 20.1526Z" fill="#0084C9"/>
<path d="M14.5421 23.1589C14.2189 23.5574 13.7025 23.7519 13.2128 23.7519C12.3636 23.7519 11.6254 23.2409 11.6254 22.1978C11.6254 21.2262 12.4468 20.7257 13.3142 20.5007C13.7292 20.3986 14.2093 20.3271 14.4312 20.2861V20.1126C14.4312 19.7961 14.348 19.5501 14.173 19.4175C13.9884 19.2745 13.7665 19.223 13.5265 19.223C13.056 19.223 12.5205 19.4481 12.1972 19.7751L11.9295 18.793C12.5941 18.4555 13.1937 18.364 13.6652 18.364C15.114 18.364 15.6218 18.937 15.6218 20.2661V23.6814H14.5421V23.1589ZM13.6001 22.8929C14.062 22.8929 14.4312 22.5039 14.4312 21.9108V21.1538C13.1478 21.3273 12.8437 21.6753 12.8437 22.1454C12.8437 22.6478 13.2128 22.8929 13.6001 22.8929Z" fill="#0084C9"/>
<path d="M17.7753 18.486V18.9875C18.1626 18.5785 18.6704 18.384 19.2614 18.384C20.517 18.384 20.8957 19.0285 20.8957 20.4396V23.6814H19.6955V20.6141C19.6955 19.8066 19.6028 19.244 18.8922 19.244C18.0335 19.244 17.868 20.1336 17.868 20.9412V23.6814H16.6678V18.487H17.7753V18.486Z" fill="#0084C9"/>
<path d="M24.5135 23.1589C24.1903 23.5574 23.6739 23.7519 23.1843 23.7519C22.3351 23.7519 21.5968 23.2409 21.5968 22.1978C21.5968 21.2262 22.4183 20.7257 23.2856 20.5007C23.7007 20.3986 24.1807 20.3271 24.4026 20.2861V20.1126C24.4026 19.7961 24.3194 19.5501 24.1444 19.4175C23.9598 19.2745 23.738 19.223 23.4979 19.223C23.0274 19.223 22.4919 19.4481 22.1687 19.7751L21.9009 18.793C22.5655 18.4555 23.1651 18.364 23.6366 18.364C25.0854 18.364 25.5932 18.937 25.5932 20.2661V23.6814H24.5135V23.1589ZM23.5716 22.8929C24.0335 22.8929 24.4026 22.5039 24.4026 21.9108V21.1538C23.1192 21.3273 22.8151 21.6753 22.8151 22.1454C22.8151 22.6478 23.1843 22.8929 23.5716 22.8929Z" fill="#0084C9"/>
<path d="M26.6384 16.0318H27.8386V23.6804H26.6384V16.0318Z" fill="#0084C9"/>
<path d="M8.45908 28.8738H8.0383V28.5392C7.84512 28.7918 7.54293 28.912 7.23117 28.912C6.57706 28.912 6.25 28.2808 6.25 27.5781C6.25 26.6942 6.70616 26.0583 7.57736 26.0583C7.71602 26.0583 7.87477 26.0745 8.01344 26.1021V25.0762H8.45908V28.8738V28.8738ZM8.01344 26.4864C7.87955 26.4311 7.71602 26.3987 7.57736 26.3987C6.96819 26.3987 6.70998 26.9202 6.70998 27.5676C6.70998 28.0062 6.84387 28.5611 7.33924 28.5611C7.81452 28.5611 8.00292 28.1053 8.01344 27.6172V26.4864V26.4864Z" fill="#0084C9"/>
<path d="M10.1431 26.0202C10.8565 26.0202 11.1243 26.5303 11.1243 27.3865V27.5457H9.52438C9.52916 28.0558 9.67835 28.5716 10.2579 28.5716C10.5151 28.5716 10.7685 28.462 10.9665 28.3028L11.066 28.7147C10.7838 28.8739 10.5362 28.9282 10.2387 28.9282C9.47561 28.9282 9.05961 28.3848 9.05005 27.4904C9.04909 26.7334 9.4058 26.0202 10.1431 26.0202ZM9.53394 27.1834H10.649C10.649 26.6123 10.4759 26.3491 10.1335 26.3491C9.75198 26.3491 9.56359 26.701 9.53394 27.1834Z" fill="#0084C9"/>
<path d="M13.2953 28.8738H12.8391V25.0762H13.2953V28.8738Z" fill="#0084C9"/>
<path d="M13.9504 28.3638C14.1732 28.523 14.3272 28.5831 14.594 28.5831C14.8417 28.5831 15.1639 28.4458 15.1639 28.1111C15.1639 27.9195 15.0999 27.7707 14.7776 27.6554L14.5347 27.5677C13.98 27.3588 13.9054 27.1071 13.9054 26.7992C13.9054 26.5189 14.0298 26.2891 14.3014 26.1461C14.4697 26.0526 14.6628 26.0202 14.856 26.0202C15.0836 26.0202 15.3122 26.0641 15.5245 26.1518L15.4155 26.5742C15.2366 26.4311 15.0492 26.3606 14.8359 26.3606C14.6227 26.3606 14.3549 26.454 14.3549 26.7553C14.3549 26.947 14.4639 27.0576 14.7757 27.1777L15.0081 27.2654C15.404 27.4132 15.622 27.5839 15.622 28.0501C15.622 28.6431 15.097 28.9282 14.5969 28.9282C14.3492 28.9282 14.0718 28.8901 13.8442 28.7909L13.9504 28.3638Z" fill="#0084C9"/>
<path d="M17.5862 28.5774C17.3883 28.8186 17.1253 28.912 16.868 28.912C16.4472 28.912 16.0255 28.7032 16.0255 28.1273C16.0255 27.2931 16.9474 27.1615 17.546 27.0795V26.9365C17.546 26.5417 17.3376 26.3711 16.9809 26.3711C16.7236 26.3711 16.5151 26.4588 16.3019 26.6295L16.1976 26.2509C16.4951 26.0917 16.802 26.0202 17.0402 26.0202C17.4906 26.0202 17.788 26.1737 17.9123 26.4483C17.9821 26.6075 17.9869 26.8106 17.9869 27.0738V28.8739H17.5853V28.5774H17.5862ZM16.9971 28.5611C17.3089 28.5611 17.547 28.3256 17.547 27.9462V27.4246C17.2152 27.4523 16.497 27.5286 16.497 28.0663C16.496 28.4343 16.7341 28.5611 16.9971 28.5611Z" fill="#0084C9"/>
<path d="M18.7118 25.0762H19.1574V26.4101C19.3554 26.1574 19.6384 26.0316 19.9502 26.0316C20.6244 26.0316 20.9208 26.6189 20.9208 27.3483C20.9208 28.3027 20.3958 28.912 19.4797 28.912C19.2225 28.912 18.9595 28.8738 18.7118 28.8347V25.0762ZM19.1574 28.4896C19.2913 28.5668 19.5093 28.5716 19.5887 28.5716C20.2084 28.5716 20.4609 27.9957 20.4609 27.3807C20.4609 26.9421 20.3566 26.3815 19.8364 26.3815C19.3611 26.3815 19.1679 26.8373 19.1574 27.3197V28.4896Z" fill="#0084C9"/>
<path d="M22.4462 26.0202C23.1596 26.0202 23.4274 26.5303 23.4274 27.3865V27.5457H21.8275C21.8323 28.0558 21.9814 28.5716 22.561 28.5716C22.8182 28.5716 23.0716 28.462 23.2696 28.3028L23.369 28.7147C23.0869 28.8739 22.8393 28.9282 22.5418 28.9282C21.7787 28.9282 21.3627 28.3848 21.3532 27.4904C21.3512 26.7334 21.7079 26.0202 22.4462 26.0202ZM21.8361 27.1834H22.9511C22.9511 26.6123 22.778 26.3491 22.4357 26.3491C22.0541 26.3491 21.8667 26.701 21.8361 27.1834Z" fill="#0084C9"/>
<path d="M24.0039 25.0762H24.4495V28.8738H24.0039V25.0762Z" fill="#0084C9"/>
<path d="M26.5181 28.8738H26.0619V25.0762H26.5181V28.8738Z" fill="#0084C9"/>
<path d="M27.8387 28.8738H27.3826V25.0762H27.8387V28.8738Z" fill="#0084C9"/>
</svg>
