<?xml version="1.0" encoding="utf-8"?>
<!-- Generator: Adobe Illustrator 25.4.1, SVG Export Plug-In . SVG Version: 6.00 Build 0)  -->
<svg version="1.1" id="Capa_1" xmlns="http://www.w3.org/2000/svg" xmlns:xlink="http://www.w3.org/1999/xlink" x="0px" y="0px"
	 viewBox="0 0 410.05 411.28" style="enable-background:new 0 0 410.05 411.28;" xml:space="preserve">
<style type="text/css">
	.st0{fill:#FFFFFF;}
	.st1{fill:#0084C9;}
	.st2{fill:#A77BCA;}
	.st3{fill:#A6BBC8;}
	.st4{fill:#009CA6;}
	.st5{fill:#00C1D5;}
</style>
<circle class="st0" cx="205.03" cy="205.64" r="202.51"/>
<g>
	<path class="st1" d="M233.71,129.02c22.21,0,40.21-18.03,40.21-40.27c0-0.72-0.02-1.43-0.06-2.14h-9.16
		c-0.81,19-17.01,34.17-36.89,34.17c-11.1,0-21.04-4.73-27.82-12.2l-0.82,0.82C206.2,121.15,219.04,129.02,233.71,129.02"/>
	<path class="st2" d="M214.64,165.43c-20.18,0-38.7-6.87-53.17-18.32l-2.08,2.08c15.73,15.35,37.42,24.84,61.37,24.84
		c48.04,0,86.98-38.15,86.98-85.21c0-0.73-0.01-1.47-0.03-2.2h-9.16C297.37,130.33,260.25,165.43,214.64,165.43"/>
	<path class="st3" d="M220.89,143.05c-15.39,0-29.42-5.79-40.06-15.31l-1.99,1.99c11.7,13,28.6,21.18,47.41,21.18
		c35.3,0,63.92-28.78,63.93-64.29h-9.28C278.95,118.11,252.83,143.05,220.89,143.05"/>
	<path class="st4" d="M314.27,86.61c-2.89,55.07-48.98,98.85-105.4,98.85c-24.17,0-46.43-8.03-64.22-21.54l-2.83,2.84
		c19.19,17.05,44.46,27.41,72.16,27.41c59.65,0,108.08-48.05,108.69-107.55H314.27z"/>
	<path class="st5" d="M236.22,109.17c11.38,0,20.6-9.44,20.6-21.08c0-0.5-0.02-0.99-0.06-1.48h-6.11
		c-1.25,8.57-8.59,15.16-17.47,15.16c-7.12,0-13.25-4.24-16.05-10.34l-1.07,1.07C218.06,102.02,226.32,109.17,236.22,109.17"/>
	<path class="st1" d="M87.39,232.62c0-21.99,13.51-38.93,33.98-38.93c5.89,0,11.97,1.29,17.66,3.86l-2.61,10.62
		c-3.86-3.11-9.27-4.83-14.58-4.83c-13.9,0-21.24,13.19-21.24,28.42c0,16.62,6.47,28.85,20.56,28.85c6.56,0,10.81-1.82,16.22-6.11
		l2.61,10.3c-5.89,4.29-12.55,5.58-20.08,5.58C99.46,270.37,87.39,255.25,87.39,232.62z"/>
	<path class="st1" d="M174.1,264.15c-3.38,4.18-8.78,6.22-13.9,6.22c-8.88,0-16.6-5.36-16.6-16.3c0-10.19,8.59-15.44,17.66-17.8
		c4.34-1.07,9.36-1.82,11.68-2.25v-1.82c0-3.32-0.87-5.9-2.7-7.29c-1.93-1.5-4.25-2.04-6.76-2.04c-4.92,0-10.52,2.36-13.9,5.79
		l-2.8-10.3c6.95-3.54,13.22-4.5,18.15-4.5c15.15,0,20.46,6.01,20.46,19.95v35.82H174.1V264.15z M164.25,261.36
		c4.83,0,8.69-4.08,8.69-10.3v-7.94c-13.42,1.82-16.6,5.47-16.6,10.4C156.34,258.79,160.2,261.36,164.25,261.36z"/>
	<path class="st1" d="M207.91,215.14v5.26c4.05-4.29,9.36-6.33,15.54-6.33c13.13,0,17.09,6.76,17.09,21.56v34h-12.55v-32.17
		c0-8.47-0.97-14.37-8.4-14.37c-8.98,0-10.71,9.33-10.71,17.8v28.74h-12.55v-54.48H207.91z"/>
	<path class="st1" d="M278.37,264.15c-3.38,4.18-8.78,6.22-13.9,6.22c-8.88,0-16.6-5.36-16.6-16.3c0-10.19,8.59-15.44,17.66-17.8
		c4.34-1.07,9.36-1.82,11.68-2.25v-1.82c0-3.32-0.87-5.9-2.7-7.29c-1.93-1.5-4.25-2.04-6.76-2.04c-4.92,0-10.52,2.36-13.9,5.79
		l-2.8-10.3c6.95-3.54,13.22-4.5,18.15-4.5c15.15,0,20.46,6.01,20.46,19.95v35.82h-11.29V264.15z M268.52,261.36
		c4.83,0,8.69-4.08,8.69-10.3v-7.94c-13.42,1.82-16.6,5.47-16.6,10.4C260.61,258.79,264.47,261.36,268.52,261.36z"/>
	<path class="st1" d="M300.59,189.4h12.55v80.22h-12.55V189.4z"/>
	<g>
		<path class="st1" d="M110.49,324.09h-4.4v-3.51c-2.02,2.65-5.18,3.91-8.44,3.91c-6.84,0-10.26-6.62-10.26-13.99
			c0-9.27,4.77-15.94,13.88-15.94c1.45,0,3.11,0.17,4.56,0.46v-10.76h4.66V324.09z M105.83,299.05c-1.4-0.58-3.11-0.92-4.56-0.92
			c-6.37,0-9.07,5.47-9.07,12.26c0,4.6,1.4,10.42,6.58,10.42c4.97,0,6.94-4.78,7.05-9.9V299.05z"/>
		<path class="st1" d="M128.1,294.16c7.46,0,10.26,5.35,10.26,14.33v1.67h-16.73c0.05,5.35,1.61,10.76,7.67,10.76
			c2.69,0,5.34-1.15,7.41-2.82l1.04,4.32c-2.95,1.67-5.54,2.24-8.65,2.24c-7.98,0-12.33-5.7-12.43-15.08
			C116.66,301.64,120.39,294.16,128.1,294.16z M121.73,306.36h11.66c0-5.99-1.81-8.75-5.39-8.75
			C124.01,297.61,122.04,301.3,121.73,306.36z"/>
	</g>
	<g>
		<path class="st1" d="M161.06,324.09h-4.77v-39.83h4.77V324.09z"/>
		<path class="st1" d="M167.91,318.74c2.33,1.67,3.94,2.3,6.73,2.3c2.59,0,5.96-1.44,5.96-4.95c0-2.01-0.67-3.57-4.04-4.78
			l-2.54-0.92c-5.8-2.19-6.58-4.83-6.58-8.06c0-2.94,1.3-5.35,4.14-6.85c1.76-0.98,3.78-1.32,5.8-1.32c2.38,0,4.77,0.46,6.99,1.38
			l-1.14,4.43c-1.87-1.5-3.83-2.24-6.06-2.24c-2.23,0-5.03,0.98-5.03,4.14c0,2.01,1.14,3.17,4.4,4.43l2.43,0.92
			c4.14,1.55,6.42,3.34,6.42,8.23c0,6.22-5.49,9.21-10.72,9.21c-2.59,0-5.49-0.4-7.87-1.44L167.91,318.74z"/>
		<path class="st1" d="M205.93,320.98c-2.07,2.53-4.82,3.51-7.51,3.51c-4.4,0-8.81-2.19-8.81-8.23c0-8.75,9.64-10.13,15.9-10.99
			v-1.5c0-4.14-2.18-5.93-5.91-5.93c-2.69,0-4.87,0.92-7.1,2.71l-1.09-3.97c3.11-1.67,6.32-2.42,8.81-2.42
			c4.71,0,7.82,1.61,9.12,4.49c0.73,1.67,0.78,3.8,0.78,6.56v18.88h-4.2V320.98z M199.77,320.81c3.26,0,5.75-2.47,5.75-6.45v-5.47
			c-3.47,0.29-10.98,1.09-10.98,6.73C194.53,319.48,197.02,320.81,199.77,320.81z"/>
		<path class="st1" d="M217.7,284.26h4.66v13.99c2.07-2.65,5.03-3.97,8.29-3.97c7.05,0,10.15,6.16,10.15,13.81
			c0,10.01-5.49,16.4-15.07,16.4c-2.69,0-5.44-0.4-8.03-0.81V284.26z M222.36,320.06c1.4,0.81,3.68,0.86,4.51,0.86
			c6.48,0,9.12-6.04,9.12-12.49c0-4.6-1.09-10.48-6.53-10.48c-4.97,0-6.99,4.78-7.1,9.84V320.06z"/>
		<path class="st1" d="M256.75,294.16c7.46,0,10.26,5.35,10.26,14.33v1.67h-16.73c0.05,5.35,1.61,10.76,7.67,10.76
			c2.69,0,5.34-1.15,7.41-2.82l1.04,4.32c-2.95,1.67-5.54,2.24-8.65,2.24c-7.98,0-12.33-5.7-12.43-15.08
			C245.3,301.64,249.03,294.16,256.75,294.16z M250.37,306.36h11.66c0-5.99-1.81-8.75-5.39-8.75
			C252.65,297.61,250.69,301.3,250.37,306.36z"/>
		<path class="st1" d="M273.04,284.26h4.66v39.83h-4.66V284.26z"/>
	</g>
	<g>
		<path class="st1" d="M299.33,324.09h-4.77v-39.83h4.77V324.09z"/>
		<path class="st1" d="M313.14,324.09h-4.77v-39.83h4.77V324.09z"/>
	</g>
</g>
</svg>
