<?xml version="1.0" encoding="utf-8"?>
<!-- Generator: Adobe Illustrator 27.0.0, SVG Export Plug-In . SVG Version: 6.00 Build 0)  -->
<svg version="1.1" id="Capa_1" xmlns="http://www.w3.org/2000/svg" xmlns:xlink="http://www.w3.org/1999/xlink" x="0px" y="0px" width="61px" height="61px"
	 viewBox="0 0 400 400" style="enable-background:new 0 0 400 400;" xml:space="preserve">
<style type="text/css">
	.st0{fill-rule:evenodd;clip-rule:evenodd;fill:#2765A0;}
</style>
<g>
	<path class="st0" d="M232.5,141.3c-4.3-0.5-8.7-0.1-13.4-0.1c0,6.7,0,13.1,0,20.2c4.8-0.3,9.3-0.1,13.7-0.8
		c5.3-0.8,8.3-4.9,8.2-9.8C240.9,145.7,238,142,232.5,141.3z"/>
	<path class="st0" d="M229,75c-52.8,0-93.2,40.6-93.2,95.3C135.8,248.4,229,325,229,325c1.6,0,94.8-84.4,94.8-154.7
		C323.8,115.6,283.4,75,229,75z M274.9,213.4c-8.3,0-16.4,0.1-24.6-0.1c-1,0-2.4-1.5-3-2.6c-5.3-9.9-10.7-19.7-15.4-29.9
		c-2.1-4.5-4.6-6.4-9.4-5.5c-1,0.2-2.1,0.1-3.3,0.2c0,7.6,0,15,0,22.9c3.4,0,6.8,0,10.5,0c0,5.1,0,9.9,0,14.8c-15,0-29.9,0-45.1,0
		c0-4.9,0-9.5,0-14.5c3.8,0,7.4,0,11.4,0c0-19.4,0-38.4,0-57.8c-3.7,0-7.4,0-11.3,0c0-5,0-9.6,0-14.3c0.6-0.1,1.1-0.3,1.5-0.3
		c18.4,0,36.9-0.1,55.3,0.2c8.8,0.1,16.1,4,20.2,12.1c4.2,8.1,4.7,16.6-0.6,24.3c-2.7,3.9-7,6.7-10.9,10.4c4,7.4,8.3,15.5,12.8,23.5
		c0.5,0.9,2,1.6,3.1,1.7c2.8,0.2,5.6,0.1,8.6,0.1C274.9,203.6,274.9,208.3,274.9,213.4z"/>
</g>
</svg>
