<svg width="36" height="36" viewBox="0 0 36 36" fill="none" xmlns="http://www.w3.org/2000/svg">
<g filter="url(#filter0_d_233_16655)">
<mask id="mask0_233_16655" style="mask-type:alpha" maskUnits="userSpaceOnUse" x="4" y="3" width="28" height="28">
<ellipse cx="17.9604" cy="16.9194" rx="13.8958" ry="13.9194" fill="black"/>
</mask>
<g mask="url(#mask0_233_16655)">
<path d="M31.8561 16.9194C31.8561 24.6069 25.6348 30.8388 17.9604 30.8388C10.2859 30.8388 4.06458 24.6069 4.06458 16.9194C4.06458 9.23194 10.2859 3 17.9604 3C25.6348 3 31.8561 9.23194 31.8561 16.9194Z" fill="#2765A0"/>
</g>
</g>
<g clip-path="url(#clip0_233_16655)">
<path fill-rule="evenodd" clip-rule="evenodd" d="M17.4473 6.8751C20.6989 6.8751 23.1465 8.03435 24.723 10.4835L22.7326 11.508C22.575 11.5896 22.6814 11.5366 22.6578 11.5488C22.6302 11.41 21.2113 10.6957 20.4349 10.5039C19.789 10.3461 19.1278 10.2653 18.4642 10.263C16.8744 10.2575 15.3155 10.7173 13.9672 11.5896C12.6626 12.428 11.6325 13.6542 11.0112 15.1082C10.9964 15.1373 10.9832 15.1673 10.9718 15.198C10.2347 17.5205 12.6389 19.0716 12.8518 20.386C13.3326 23.329 12.4024 24.1862 10.8338 25.1822C12.8045 19.7207 8.02759 19.0308 8.02759 14.349C8.02759 9.66709 12.5128 6.86694 17.4868 6.86694L17.4473 6.8751Z" fill="#ED2633"/>
<path fill-rule="evenodd" clip-rule="evenodd" d="M18.204 22.7329C18.4326 24.0881 18.6494 25.6718 18.8819 26.9903C17.0926 27.1105 15.2962 27.0517 13.5178 26.8147C13.2931 26.7821 13.3404 26.0882 13.5454 25.9984C14.3336 25.5902 15.6658 25.7984 15.7367 23.6309C16.6084 23.5109 17.4476 23.2096 18.204 22.7452V22.7329Z" fill="white"/>
<path fill-rule="evenodd" clip-rule="evenodd" d="M19.0278 13.5488C19.9109 13.5295 20.7875 13.708 21.5977 14.0723C22.4079 14.4365 23.1326 14.9778 23.7219 15.6591C23.3689 15.8078 23.0309 15.9924 22.713 16.2101C21.4694 17.0617 20.3684 18.1178 19.4535 19.3368L19.3747 19.2838C19.0173 19.0597 18.593 18.9792 18.1821 19.0575C17.7712 19.1357 17.4024 19.3674 17.1454 19.7085C16.8884 20.0496 16.7612 20.4765 16.7878 20.9083C16.8144 21.3401 16.993 21.7467 17.2897 22.0513V22.0513L17.3331 22.0921C17.4649 22.2201 17.6152 22.3261 17.7784 22.4064C16.8995 22.8431 16.1783 23.1044 15.7329 23.035C15.5437 22.937 15.7053 22.5819 15.5319 22.4676C14.8672 22.059 14.3133 21.4828 13.9219 20.7925C13.5304 20.1023 13.3141 19.3206 13.2932 18.5205C13.2932 15.7734 15.859 13.5488 19.0278 13.5488V13.5488Z" fill="white"/>
<path fill-rule="evenodd" clip-rule="evenodd" d="M23.04 16.7245C21.2467 17.9491 20.4269 19.0961 19.4928 20.2594C19.3994 20.0794 19.2616 19.9284 19.0934 19.8216C18.9253 19.7148 18.7327 19.6561 18.5355 19.6515C18.3383 19.6469 18.1434 19.6965 17.9708 19.7954C17.7981 19.8942 17.6539 20.0387 17.5528 20.2141C17.4516 20.3895 17.3972 20.5896 17.3951 20.7939C17.393 20.9982 17.4432 21.1994 17.5406 21.377C17.6381 21.5547 17.7793 21.7024 17.9498 21.805C18.1204 21.9077 18.3142 21.9617 18.5115 21.9615C19.1692 21.9409 19.8147 21.7724 20.4033 21.4676C21.7985 20.7778 23.4972 19.5206 25.1959 19.5042C26.4138 19.5042 25.9842 19.1328 25.6492 18.5083C25.3418 17.9654 25.0028 17.2511 25.1289 16.8755C25.4442 15.9286 25.4009 15.651 24.5259 16.0061C24.0088 16.1878 23.5141 16.4316 23.0519 16.7327L23.04 16.7245Z" fill="white"/>
<path fill-rule="evenodd" clip-rule="evenodd" d="M20.9117 21.9453C21.1719 22.7331 21.7434 23.5985 22.4646 23.9005C22.4646 23.9849 22.4646 24.0747 22.4646 24.1699C22.4646 25.0965 22.5907 25.8557 23.2529 26.3292C24.0806 26.9129 24.5102 27.166 22.4449 27.117C20.1668 27.0599 18.8977 24.8026 18.8268 22.5372C19.5413 22.4166 20.2415 22.2183 20.9157 21.9453H20.9117Z" fill="white"/>
<path fill-rule="evenodd" clip-rule="evenodd" d="M18.4366 10.8875C19.6822 10.8836 20.911 11.1843 22.0232 11.7651L21.8695 12.1733C21.7829 12.1234 21.6918 12.0824 21.5976 12.0508C21.2696 11.9107 20.9016 11.9102 20.5733 12.0492C20.245 12.1883 19.9828 12.4558 19.8437 12.7937C19.8232 12.8574 19.8087 12.923 19.8003 12.9896C19.5385 12.9609 19.2753 12.9473 19.0121 12.9488C17.3988 12.9284 15.8297 13.4946 14.5781 14.5489C14.4401 14.6673 14.3061 14.7938 14.1839 14.9244C14.1038 14.8055 14.0004 14.7053 13.8805 14.6305C13.5655 14.4638 13.1997 14.4325 12.8625 14.5433C12.5253 14.6541 12.2439 14.8981 12.0793 15.2224C12.015 15.3262 11.9621 15.4371 11.9216 15.553L11.496 15.4061C12.1013 14.0372 13.0795 12.8811 14.3104 12.0799C15.5412 11.2786 16.9712 10.867 18.4248 10.8957L18.4366 10.8875Z" fill="white"/>
</g>
<defs>
<filter id="filter0_d_233_16655" x="0.0645752" y="0" width="35.7916" height="35.8389" filterUnits="userSpaceOnUse" color-interpolation-filters="sRGB">
<feFlood flood-opacity="0" result="BackgroundImageFix"/>
<feColorMatrix in="SourceAlpha" type="matrix" values="0 0 0 0 0 0 0 0 0 0 0 0 0 0 0 0 0 0 127 0" result="hardAlpha"/>
<feOffset dy="1"/>
<feGaussianBlur stdDeviation="2"/>
<feComposite in2="hardAlpha" operator="out"/>
<feColorMatrix type="matrix" values="0 0 0 0 0 0 0 0 0 0 0 0 0 0 0 0 0 0 0.25 0"/>
<feBlend mode="normal" in2="BackgroundImageFix" result="effect1_dropShadow_233_16655"/>
<feBlend mode="normal" in="SourceGraphic" in2="effect1_dropShadow_233_16655" result="shape"/>
</filter>
<clipPath id="clip0_233_16655">
<rect width="18" height="20.25" fill="white" transform="translate(8 6.875)"/>
</clipPath>
</defs>
</svg>
