<?xml version="1.0" encoding="utf-8"?>
<!-- Generator: Adobe Illustrator 27.0.0, SVG Export Plug-In . SVG Version: 6.00 Build 0)  -->
<svg version="1.1" id="Capa_1" xmlns="http://www.w3.org/2000/svg" xmlns:xlink="http://www.w3.org/1999/xlink" x="0px" y="0px" width="61px" height="61px"
	 viewBox="0 0 400 400" style="enable-background:new 0 0 400 400;" xml:space="preserve">
<style type="text/css">
	.st0{fill-rule:evenodd;clip-rule:evenodd;fill:#F4C91E;}
</style>
<path class="st0" d="M214.7,88.9c-52.8,0-93.2,40.6-93.2,95.3c0,78.1,93.2,154.7,93.2,154.7c1.6,0,94.8-84.4,94.8-154.7
	C309.5,129.6,269.1,88.9,214.7,88.9z M181.9,232c10.7-29.7-15.3-33.4-15.3-58.9c0-25.4,24.4-40.7,51.4-40.7l-0.2,0
	c17.7,0,31,6.3,39.5,19.6l-10.8,5.6c-0.2,0.1-0.3,0.2-0.4,0.2c0,0,0,0,0,0c0,0-0.1,0.1,0,0c-0.2-0.8-7.9-4.6-12.1-5.7
	c-3.5-0.9-7.1-1.3-10.7-1.3c-8.6,0-17.1,2.5-24.4,7.2c-7.1,4.6-12.7,11.2-16.1,19.1c-0.1,0.2-0.2,0.3-0.2,0.5
	c-4,12.6,9.1,21.1,10.2,28.2C195.4,221.9,190.4,226.5,181.9,232z M242.7,159l-0.8,2.2c-0.5-0.3-1-0.5-1.5-0.7
	c-1.8-0.8-3.8-0.8-5.6,0c-1.8,0.8-3.2,2.2-4,4c-0.1,0.3-0.2,0.7-0.2,1.1c-1.4-0.2-2.9-0.2-4.3-0.2c-8.8-0.1-17.3,3-24.1,8.7
	c-0.8,0.6-1.5,1.3-2.1,2c-0.4-0.6-1-1.2-1.6-1.6c-1.7-0.9-3.7-1.1-5.5-0.5c-1.8,0.6-3.4,1.9-4.3,3.7c-0.3,0.6-0.6,1.2-0.9,1.8
	l-2.3-0.8c3.3-7.4,8.6-13.7,15.3-18.1c6.7-4.4,14.5-6.6,22.4-6.4l0.1,0C230,154.2,236.6,155.9,242.7,159z M226.4,168.7
	c4.8-0.1,9.6,0.9,14,2.8c4.4,2,8.3,4.9,11.5,8.6c-1.9,0.8-3.8,1.8-5.5,3c-6.8,4.6-12.7,10.4-17.7,17l-0.4-0.3
	c-1.9-1.2-4.2-1.7-6.5-1.2c-2.2,0.4-4.2,1.7-5.6,3.5c-1.4,1.9-2.1,4.2-1.9,6.5c0.1,2.3,1.1,4.6,2.7,6.2l0.2,0.2
	c0.7,0.7,1.5,1.3,2.4,1.7c-4.8,2.4-8.7,3.8-11.1,3.4c-1-0.5-0.1-2.5-1.1-3.1c-3.6-2.2-6.6-5.4-8.8-9.1c-2.1-3.8-3.3-8-3.4-12.3
	C195.2,180.8,209.2,168.7,226.4,168.7z M196.5,240.8c-1.2-0.2-1-3.9,0.1-4.4c4.3-2.2,11.5-1.1,11.9-12.9c4.7-0.7,9.3-2.3,13.4-4.8
	v-0.1c1.2,7.4,2.4,16,3.7,23.1C215.9,242.4,206.1,242.1,196.5,240.8z M245,242.5c-12.4-0.3-19.3-12.6-19.7-24.9
	c3.9-0.7,7.7-1.7,11.3-3.2c0,0,0,0,0,0h0c0,0,0,0,0,0c1.4,4.3,4.5,9,8.4,10.6c0,0.5,0,0.9,0,1.5c0,5,0.7,9.2,4.3,11.7
	C253.9,241.4,256.2,242.7,245,242.5z M259.9,201.1c-9.2,0.1-18.5,6.9-26,10.7c-3.2,1.7-6.7,2.6-10.3,2.7c-1.1,0-2.1-0.3-3.1-0.9
	c-0.9-0.6-1.7-1.4-2.2-2.3c-0.5-1-0.8-2.1-0.8-3.2c0-1.1,0.3-2.2,0.9-3.2c0.5-1,1.3-1.7,2.3-2.3c0.9-0.5,2-0.8,3.1-0.8
	c1.1,0,2.1,0.3,3,0.9c0.9,0.6,1.7,1.4,2.2,2.4c5.1-6.3,9.5-12.6,19.3-19.2l0.1,0c2.5-1.6,5.2-3,8-3.9c4.8-1.9,5-0.4,3.3,4.7
	c-0.7,2,1.2,5.9,2.8,8.9C264.2,199.1,266.5,201.1,259.9,201.1z"/>
</svg>
