<svg width="42" height="42" viewBox="0 0 42 42" fill="none" xmlns="http://www.w3.org/2000/svg">
<circle cx="21" cy="21" r="21" fill="#2765A0"/>
<mask id="mask0_1513_20014" style="mask-type:alpha" maskUnits="userSpaceOnUse" x="0" y="0" width="42" height="42">
<circle cx="21" cy="21" r="21" fill="white"/>
</mask>
<g mask="url(#mask0_1513_20014)">
<path d="M46 0H0V42H46V0Z" fill="white"/>
<g clip-path="url(#clip0_1513_20014)">
<path d="M78 28.9219H-11V32.5415H78V28.9219Z" fill="#CE0538"/>
<path d="M78 36.1523H-11V39.772H78V36.1523Z" fill="#CE0538"/>
<path d="M78 21.6895H-11V25.3048H78V21.6895Z" fill="#CE0538"/>
<path d="M78 7.23242H-11V10.8436H78V7.23242Z" fill="#CE0538"/>
<path d="M78 0H-11V3.61326H78V0Z" fill="#CE0538"/>
<path d="M78 14.4629H-11V18.0783H78V14.4629Z" fill="#CE0538"/>
<path d="M24.5597 0H-11V25.2694H24.5597V0Z" fill="#003A78"/>
<path d="M0.651046 3.17383L1.01128 4.29034H2.17888L1.23378 4.97939L1.59614 6.09378L0.651046 5.40473L-0.294049 6.09378L0.0661888 4.97939L-0.878906 4.29034H0.288689L0.651046 3.17383Z" fill="white"/>
<path d="M6.5612 3.17383L6.92144 4.29034H8.08904L7.14394 4.97939L7.5063 6.09378L6.5612 5.40473L5.61611 6.09378L5.97635 4.97939L5.03125 4.29034H6.19885L6.5612 3.17383Z" fill="white"/>
<path d="M12.5396 3.17383L12.9019 4.29034H14.0695L13.1244 4.97939L13.4846 6.09378L12.5396 5.40473L11.5945 6.09378L11.9568 4.97939L11.0117 4.29034H12.1793L12.5396 3.17383Z" fill="white"/>
<path d="M18.4401 3.17383L18.8003 4.29034H19.9679L19.0228 4.97939L19.3852 6.09378L18.4401 5.40473L17.495 6.09378L17.8552 4.97939L16.9102 4.29034H18.0778L18.4401 3.17383Z" fill="white"/>
<path d="M0.651046 8.32422L1.01128 9.44073H2.17888L1.23378 10.1298L1.59614 11.2442L0.651046 10.5551L-0.294049 11.2442L0.0661888 10.1298L-0.878906 9.44073H0.288689L0.651046 8.32422Z" fill="white"/>
<path d="M6.5612 8.32422L6.92144 9.44073H8.08904L7.14394 10.1298L7.5063 11.2442L6.5612 10.5551L5.61611 11.2442L5.97635 10.1298L5.03125 9.44073H6.19885L6.5612 8.32422Z" fill="white"/>
<path d="M12.5396 8.32422L12.9019 9.44073H14.0695L13.1244 10.1298L13.4846 11.2442L12.5396 10.5551L11.5945 11.2442L11.9568 10.1298L11.0117 9.44073H12.1793L12.5396 8.32422Z" fill="white"/>
<path d="M18.4401 8.32422L18.8003 9.44073H19.9679L19.0228 10.1298L19.3852 11.2442L18.4401 10.5551L17.495 11.2442L17.8552 10.1298L16.9102 9.44073H18.0778L18.4401 8.32422Z" fill="white"/>
<path d="M0.651046 13.3906L1.01128 14.505H2.17888L1.23378 15.1941L1.59614 16.3106L0.651046 15.6215L-0.294049 16.3106L0.0661888 15.1941L-0.878906 14.505H0.288689L0.651046 13.3906Z" fill="white"/>
<path d="M6.5612 13.3906L6.92144 14.505H8.08904L7.14394 15.1941L7.5063 16.3106L6.5612 15.6215L5.61611 16.3106L5.97635 15.1941L5.03125 14.505H6.19885L6.5612 13.3906Z" fill="white"/>
<path d="M12.5396 13.3906L12.9019 14.505H14.0695L13.1244 15.1941L13.4846 16.3106L12.5396 15.6215L11.5945 16.3106L11.9568 15.1941L11.0117 14.505H12.1793L12.5396 13.3906Z" fill="white"/>
<path d="M18.4401 13.3906L18.8003 14.505H19.9679L19.0228 15.1941L19.3852 16.3106L18.4401 15.6215L17.495 16.3106L17.8552 15.1941L16.9102 14.505H18.0778L18.4401 13.3906Z" fill="white"/>
<path d="M0.651046 18.5059L1.01128 19.6224H2.17888L1.23378 20.3114L1.59614 21.4258L0.651046 20.7368L-0.294049 21.4258L0.0661888 20.3114L-0.878906 19.6224H0.288689L0.651046 18.5059Z" fill="white"/>
<path d="M6.5612 18.5059L6.92144 19.6224H8.08904L7.14394 20.3114L7.5063 21.4258L6.5612 20.7368L5.61611 21.4258L5.97635 20.3114L5.03125 19.6224H6.19885L6.5612 18.5059Z" fill="white"/>
<path d="M12.5396 18.5059L12.9019 19.6224H14.0695L13.1244 20.3114L13.4846 21.4258L12.5396 20.7368L11.5945 21.4258L11.9568 20.3114L11.0117 19.6224H12.1793L12.5396 18.5059Z" fill="white"/>
<path d="M18.4401 18.5059L18.8003 19.6224H19.9679L19.0228 20.3114L19.3852 21.4258L18.4401 20.7368L17.495 21.4258L17.8552 20.3114L16.9102 19.6224H18.0778L18.4401 18.5059Z" fill="white"/>
<path d="M3.58855 5.73828L3.94878 6.85267H5.1185L4.17128 7.54172L4.53364 8.65824L3.58855 7.96919L2.64345 8.65824L3.00369 7.54172L2.05859 6.85267H3.22619L3.58855 5.73828Z" fill="white"/>
<path d="M9.5669 5.73828L9.92925 6.85267H11.0968L10.1518 7.54172L10.512 8.65824L9.5669 7.96919L8.6218 8.65824L8.98416 7.54172L8.03906 6.85267H9.20666L9.5669 5.73828Z" fill="white"/>
<path d="M15.4675 5.73828L15.8277 6.85267H16.9974L16.0502 7.54172L16.4125 8.65824L15.4675 7.96919L14.5224 8.65824L14.8826 7.54172L13.9375 6.85267H15.1072L15.4675 5.73828Z" fill="white"/>
<path d="M21.4089 5.73828L21.7691 6.85267H22.9367L21.9916 7.54172L22.354 8.65824L21.4089 7.96919L20.4638 8.65824L20.824 7.54172L19.8789 6.85267H21.0465L21.4089 5.73828Z" fill="white"/>
<path d="M3.58855 0.625L3.94878 1.73939H5.1185L4.17128 2.42844L4.53364 3.54283L3.58855 2.85378L2.64345 3.54283L3.00369 2.42844L2.05859 1.73939H3.22619L3.58855 0.625Z" fill="white"/>
<path d="M9.5669 0.625L9.92925 1.73939H11.0968L10.1518 2.42844L10.512 3.54283L9.5669 2.85378L8.6218 3.54283L8.98416 2.42844L8.03906 1.73939H9.20666L9.5669 0.625Z" fill="white"/>
<path d="M15.4675 0.625L15.8277 1.73939H16.9974L16.0502 2.42844L16.4125 3.54283L15.4675 2.85378L14.5224 3.54283L14.8826 2.42844L13.9375 1.73939H15.1072L15.4675 0.625Z" fill="white"/>
<path d="M21.4089 0.625L21.7691 1.73939H22.9367L21.9916 2.42844L22.354 3.54283L21.4089 2.85378L20.4638 3.54283L20.824 2.42844L19.8789 1.73939H21.0465L21.4089 0.625Z" fill="white"/>
<path d="M3.58855 10.8672L3.94878 11.9816H5.1185L4.17128 12.6706L4.53364 13.7871L3.58855 13.0981L2.64345 13.7871L3.00369 12.6706L2.05859 11.9816H3.22619L3.58855 10.8672Z" fill="white"/>
<path d="M9.5669 10.8672L9.92925 11.9816H11.0968L10.1518 12.6706L10.512 13.7871L9.5669 13.0981L8.6218 13.7871L8.98416 12.6706L8.03906 11.9816H9.20666L9.5669 10.8672Z" fill="white"/>
<path d="M15.4675 10.8672L15.8277 11.9816H16.9974L16.0502 12.6706L16.4125 13.7871L15.4675 13.0981L14.5224 13.7871L14.8826 12.6706L13.9375 11.9816H15.1072L15.4675 10.8672Z" fill="white"/>
<path d="M21.4089 10.8672L21.7691 11.9816H22.9367L21.9916 12.6706L22.354 13.7871L21.4089 13.0981L20.4638 13.7871L20.824 12.6706L19.8789 11.9816H21.0465L21.4089 10.8672Z" fill="white"/>
<path d="M3.58855 16.0039L3.94878 17.1183H5.1185L4.17128 17.8073L4.53364 18.9239L3.58855 18.2327L2.64345 18.9239L3.00369 17.8073L2.05859 17.1183H3.22619L3.58855 16.0039Z" fill="white"/>
<path d="M9.5669 16.0039L9.92925 17.1183H11.0968L10.1518 17.8073L10.512 18.9239L9.5669 18.2327L8.6218 18.9239L8.98416 17.8073L8.03906 17.1183H9.20666L9.5669 16.0039Z" fill="white"/>
<path d="M15.4675 16.0039L15.8277 17.1183H16.9974L16.0502 17.8073L16.4125 18.9239L15.4675 18.2327L14.5224 18.9239L14.8826 17.8073L13.9375 17.1183H15.1072L15.4675 16.0039Z" fill="white"/>
<path d="M21.4089 16.0039L21.7691 17.1183H22.9367L21.9916 17.8073L22.354 18.9239L21.4089 18.2327L20.4638 18.9239L20.824 17.8073L19.8789 17.1183H21.0465L21.4089 16.0039Z" fill="white"/>
<path d="M3.58855 21.0352L3.94878 22.1495H5.1185L4.17128 22.8386L4.53364 23.9551L3.58855 23.2661L2.64345 23.9551L3.00369 22.8386L2.05859 22.1495H3.22619L3.58855 21.0352Z" fill="white"/>
<path d="M9.5669 21.0352L9.92925 22.1495H11.0968L10.1518 22.8386L10.512 23.9551L9.5669 23.2661L8.6218 23.9551L8.98416 22.8386L8.03906 22.1495H9.20666L9.5669 21.0352Z" fill="white"/>
<path d="M15.4675 21.0352L15.8277 22.1495H16.9974L16.0502 22.8386L16.4125 23.9551L15.4675 23.2661L14.5224 23.9551L14.8826 22.8386L13.9375 22.1495H15.1072L15.4675 21.0352Z" fill="white"/>
<path d="M21.4089 21.0352L21.7691 22.1495H22.9367L21.9916 22.8386L22.354 23.9551L21.4089 23.2661L20.4638 23.9551L20.824 22.8386L19.8789 22.1495H21.0465L21.4089 21.0352Z" fill="white"/>
</g>
</g>
<defs>
<clipPath id="clip0_1513_20014">
<rect width="89" height="47" fill="white" transform="translate(-11)"/>
</clipPath>
</defs>
</svg>
