<svg width="137" height="37" viewBox="0 0 137 37" fill="none" xmlns="http://www.w3.org/2000/svg">
<path fill-rule="evenodd" clip-rule="evenodd" d="M99.8837 27.6019C99.5627 27.7779 99.2867 28.0109 99.0587 28.3019C98.8407 28.6029 98.6847 28.9349 98.5917 29.2979C98.4877 29.6519 98.4357 30.0309 98.4357 30.4349C98.4357 30.8299 98.4877 31.2039 98.5917 31.5559C98.6847 31.9189 98.8407 32.2509 99.0587 32.5519C99.2867 32.8539 99.5627 33.0869 99.8837 33.2529C100.216 33.4289 100.616 33.5179 101.083 33.5179C101.539 33.5179 101.934 33.4289 102.266 33.2529C102.588 33.0869 102.863 32.8539 103.091 32.5519C103.309 32.2509 103.465 31.9189 103.558 31.5559C103.661 31.2039 103.714 30.8299 103.714 30.4349C103.714 30.0309 103.661 29.6519 103.558 29.2979C103.465 28.9349 103.309 28.6029 103.091 28.3019C102.863 28.0109 102.588 27.7779 102.266 27.6019C101.934 27.4249 101.539 27.3369 101.083 27.3369C100.616 27.3369 100.216 27.4249 99.8837 27.6019Z" fill="#00AAFF"/>
<path fill-rule="evenodd" clip-rule="evenodd" d="M111.202 27.8666C110.953 27.6176 110.574 27.4926 110.065 27.4926H107.574V30.2486H110.065C110.283 30.2486 110.475 30.2176 110.641 30.1546C110.807 30.1026 110.968 30.0146 111.124 29.8896C111.269 29.7656 111.378 29.6206 111.451 29.4546C111.534 29.3196 111.575 29.1276 111.575 28.8786C111.575 28.4526 111.451 28.1156 111.202 27.8666Z" fill="#00AAFF"/>
<mask id="mask0" mask-type="alpha" maskUnits="userSpaceOnUse" x="0" y="0" width="137" height="37">
<path fill-rule="evenodd" clip-rule="evenodd" d="M0 36.1489H136.235V-9.98974e-05H0V36.1489Z" fill="white"/>
</mask>
<g mask="url(#mask0)">
<path fill-rule="evenodd" clip-rule="evenodd" d="M79.91 33.9379H80.58V26.9169H79.91V33.9379Z" fill="#00AAFF"/>
<path fill-rule="evenodd" clip-rule="evenodd" d="M71.4727 26.9164H72.1417V29.9684H76.3147V26.9164H76.9677V33.9374H76.3147V30.5444H72.1417V33.9374H71.4727V26.9164Z" fill="#00AAFF"/>
<path fill-rule="evenodd" clip-rule="evenodd" d="M110.937 27.0258C111.186 27.0978 111.414 27.2078 111.622 27.3528C111.819 27.5188 111.969 27.7108 112.073 27.9278C112.187 28.1468 112.245 28.4218 112.245 28.7548C112.245 29.1998 112.13 29.5848 111.902 29.9058C111.663 30.2378 111.326 30.4508 110.89 30.5448V30.5598C111.108 30.5908 111.294 30.6528 111.451 30.7468C111.606 30.8298 111.73 30.9388 111.824 31.0738C111.907 31.2088 111.974 31.3698 112.027 31.5558C112.079 31.7638 112.104 31.9608 112.104 32.1478L112.166 33.0818C112.218 33.3618 112.249 33.5278 112.26 33.5798C112.301 33.7358 112.359 33.8548 112.431 33.9378H111.7C111.658 33.8758 111.627 33.7978 111.606 33.7048C111.575 33.6108 111.559 33.5118 111.559 33.4088L111.451 32.1008C111.419 31.8518 111.357 31.6338 111.263 31.4478C111.17 31.2598 111.03 31.1048 110.843 30.9798C110.677 30.8558 110.433 30.8028 110.112 30.8248H107.574V33.9378H106.905V26.9168H110.112C110.413 26.9168 110.688 26.9538 110.937 27.0258Z" fill="#00AAFF"/>
<path fill-rule="evenodd" clip-rule="evenodd" d="M87.6318 27.3217C87.8698 27.5187 88.0578 27.7477 88.1928 28.0077C88.3378 28.2567 88.4098 28.5727 88.4098 28.9567H87.7408C87.7308 28.6967 87.6678 28.4637 87.5538 28.2567C87.4708 28.0797 87.3308 27.9087 87.1338 27.7417C86.9468 27.6067 86.7498 27.5087 86.5418 27.4457C86.3238 27.3737 86.0848 27.3377 85.8258 27.3377C85.6178 27.3377 85.3958 27.3627 85.1558 27.4157C84.9598 27.4677 84.7728 27.5447 84.5958 27.6487C84.4408 27.7527 84.3108 27.8977 84.2068 28.0847C84.1128 28.2607 84.0668 28.4787 84.0668 28.7387C84.0668 28.8937 84.0928 29.0337 84.1448 29.1587C84.2068 29.2937 84.2848 29.3967 84.3778 29.4697C84.4408 29.5317 84.5548 29.6047 84.7208 29.6877L86.8378 30.2327C87.0868 30.2957 87.3198 30.3727 87.5378 30.4667C87.8088 30.6007 88.0008 30.7197 88.1138 30.8247C88.2908 30.9687 88.4258 31.1407 88.5188 31.3387C88.6118 31.5457 88.6588 31.7947 88.6588 32.0857L88.6278 32.3967C88.6078 32.5427 88.5708 32.6817 88.5188 32.8167C88.4568 32.9527 88.3678 33.1027 88.2548 33.2687C88.1098 33.4247 87.9478 33.5587 87.7718 33.6737C87.5748 33.7987 87.3308 33.8957 87.0398 33.9687C86.7598 34.0417 86.4028 34.0777 85.9658 34.0777C85.5508 34.0777 85.1718 34.0317 84.8288 33.9377C84.4868 33.8437 84.1808 33.6997 83.9108 33.5027C83.6618 33.3047 83.4708 33.0507 83.3348 32.7387C83.2108 32.4177 83.1528 32.0497 83.1638 31.6337H83.8328C83.8328 31.9757 83.8908 32.2777 84.0048 32.5377C84.1398 32.7967 84.3008 32.9877 84.4868 33.1127C84.7268 33.2687 84.9698 33.3727 85.2188 33.4247C85.5198 33.4867 85.8258 33.5177 86.1378 33.5177C86.2928 33.5177 86.4898 33.4917 86.7298 33.4397C86.9158 33.3977 87.1178 33.3147 87.3358 33.1907C87.5328 33.0547 87.6888 32.9047 87.8028 32.7387C87.9278 32.5727 87.9898 32.3547 87.9898 32.0857C87.9898 31.8987 87.9438 31.7327 87.8498 31.5877C87.7778 31.4417 87.6628 31.3177 87.5068 31.2137C87.3718 31.1197 87.2168 31.0427 87.0398 30.9797C86.8018 30.8967 86.6358 30.8447 86.5418 30.8247L84.3778 30.2487C84.1808 30.1657 84.0148 30.0557 83.8798 29.9217C83.7248 29.7867 83.6048 29.6257 83.5228 29.4387C83.4398 29.2417 83.3978 29.0127 83.3978 28.7547C83.3978 28.5887 83.4288 28.3847 83.4898 28.1467C83.5538 27.9187 83.6778 27.7007 83.8638 27.4927C84.0618 27.2747 84.3108 27.1037 84.6108 26.9787C84.9118 26.8437 85.3128 26.7767 85.8108 26.7767C86.1428 26.7767 86.4748 26.8187 86.8068 26.9017C87.1288 26.9947 87.4028 27.1347 87.6318 27.3217Z" fill="#00AAFF"/>
<path fill-rule="evenodd" clip-rule="evenodd" d="M96.0069 26.9164V27.4924H93.5479V33.9374H92.8789V27.4924H90.4489V26.9164H96.0069Z" fill="#00AAFF"/>
<path fill-rule="evenodd" clip-rule="evenodd" d="M98.5917 27.8822C98.8717 27.5392 99.2197 27.2702 99.6347 27.0722C100.029 26.8752 100.512 26.7772 101.083 26.7772C101.643 26.7772 102.126 26.8752 102.53 27.0722C102.946 27.2792 103.288 27.5502 103.558 27.8822C103.827 28.2032 104.035 28.5932 104.181 29.0492C104.316 29.4642 104.383 29.9272 104.383 30.4352C104.383 30.9232 104.316 31.3842 104.181 31.8202C104.035 32.2782 103.827 32.6612 103.558 32.9722C103.288 33.3052 102.946 33.5742 102.53 33.7822C102.126 33.9792 101.643 34.0772 101.083 34.0772C100.512 34.0772 100.029 33.9792 99.6347 33.7822C99.2197 33.5852 98.8717 33.3152 98.5917 32.9722C98.3217 32.6612 98.1137 32.2782 97.9687 31.8202C97.8337 31.3842 97.7667 30.9232 97.7667 30.4352C97.7667 29.9272 97.8337 29.4642 97.9687 29.0492C98.1137 28.5932 98.3217 28.2032 98.5917 27.8822Z" fill="#00AAFF"/>
<path fill-rule="evenodd" clip-rule="evenodd" d="M119.406 26.9164H120.2L117.428 31.0424V33.9374H116.759V31.0424L114.004 26.9164H114.798L117.101 30.4814L119.406 26.9164Z" fill="#00AAFF"/>
<path fill-rule="evenodd" clip-rule="evenodd" d="M68.141 36.1489H122.847V24.6279H68.141V36.1489Z" fill="#00AAFF"/>
<path fill-rule="evenodd" clip-rule="evenodd" d="M64.0468 28.0844C63.8278 27.7624 63.6098 27.5234 63.3928 27.3684C63.1328 27.1604 62.8428 27.0104 62.5208 26.9164C62.1988 26.8234 61.8518 26.7764 61.4778 26.7764C60.9168 26.7764 60.4348 26.8754 60.0288 27.0724C59.6138 27.2704 59.2668 27.5394 58.9868 27.8824C58.7168 28.2034 58.5098 28.5934 58.3638 29.0494C58.2298 29.4644 58.1618 29.9274 58.1618 30.4354C58.1618 30.9234 58.2298 31.3844 58.3638 31.8204C58.5098 32.2774 58.7168 32.6614 58.9868 32.9724C59.2668 33.3144 59.6138 33.5854 60.0288 33.7824C60.4348 33.9794 60.9168 34.0774 61.4778 34.0774C61.6958 34.0774 61.9448 34.0524 62.2248 34.0004C62.4118 33.9584 62.6348 33.8754 62.8948 33.7514C63.1438 33.5954 63.3358 33.4444 63.4698 33.3004C63.6258 33.1444 63.7718 32.9314 63.9058 32.6614H63.9218L64.0158 33.9384H64.4978V30.3724H61.5088V30.9334H63.9058C63.9058 31.3274 63.8548 31.6754 63.7508 31.9764C63.6568 32.2774 63.5018 32.5474 63.2838 32.7864C63.1078 32.9934 62.8538 33.1754 62.5208 33.3304C62.2088 33.4554 61.8618 33.5184 61.4778 33.5184C61.0108 33.5184 60.6108 33.4294 60.2778 33.2534C59.9568 33.0874 59.6828 32.8544 59.4538 32.5524C59.2358 32.2514 59.0798 31.9194 58.9868 31.5564C58.8828 31.2034 58.8308 30.8294 58.8308 30.4354C58.8308 30.0304 58.8828 29.6514 58.9868 29.2984C59.0798 28.9354 59.2358 28.6034 59.4538 28.3024C59.6828 28.0114 59.9568 27.7774 60.2778 27.6024C60.6108 27.4254 61.0108 27.3374 61.4778 27.3374C61.7998 27.3374 62.1008 27.3944 62.3808 27.5084C62.6508 27.6224 62.8838 27.7624 63.0808 27.9284C63.2578 28.0844 63.4078 28.2714 63.5328 28.4894C63.6468 28.6864 63.7148 28.8894 63.7348 29.0964H64.4038C64.3418 28.7324 64.2228 28.3964 64.0468 28.0844ZM29.3928 26.9164H28.7228V33.9384H33.3158V33.3614H29.3928V26.9164ZM35.5258 33.9374H36.1948V26.9164H35.5258V33.9374ZM22.0748 33.3614V30.5914H25.9978V30.0304H22.0748V27.4924H26.2628V26.9164H21.4058V33.9384H26.3098V33.3614H22.0748ZM55.6088 26.9164H54.9398V32.8634H54.9238L50.8288 26.9164H50.0818V33.9384H50.7518V28.0074H50.7818L54.8608 33.9384H55.6088V26.9164ZM46.4858 33.9374H47.1548V26.9164H46.4858V33.9374ZM44.3538 26.9164H43.6368L41.3798 33.2064H41.3488L39.0748 26.9164H38.3598L40.9588 33.9384H41.7368L44.3538 26.9164ZM18.5568 27.9284C18.4528 27.7004 18.2978 27.5084 18.0898 27.3534C17.9128 27.2184 17.6908 27.1084 17.4198 27.0254C17.1708 26.9534 16.8968 26.9164 16.5958 26.9164H13.3728V33.9384H14.0428V30.8244H16.5798C16.9008 30.8134 17.1508 30.8664 17.3268 30.9804C17.4928 31.0844 17.6338 31.2394 17.7468 31.4474C17.8408 31.6344 17.9028 31.8524 17.9348 32.1014L18.0268 33.4084L18.0898 33.7044C18.1098 33.7984 18.1418 33.8754 18.1838 33.9384H18.9148C18.8528 33.8754 18.7958 33.7564 18.7438 33.5794C18.6918 33.4244 18.6608 33.2584 18.6508 33.0814L18.5878 32.1474C18.5678 31.8884 18.5408 31.6904 18.5098 31.5564C18.4578 31.3694 18.3908 31.2084 18.3078 31.0734C18.1928 30.9174 18.0688 30.8094 17.9348 30.7464C17.7778 30.6524 17.5858 30.5914 17.3588 30.5604V30.5444C17.8048 30.4504 18.1478 30.2374 18.3858 29.9054C18.6138 29.5844 18.7288 29.1994 18.7288 28.7544C18.7288 28.4524 18.6708 28.1774 18.5568 27.9284ZM16.5488 27.4924C17.0578 27.4924 17.4358 27.6174 17.6858 27.8664C17.9348 28.1154 18.0588 28.4524 18.0588 28.8784C18.0588 29.0964 18.0178 29.2884 17.9348 29.4544C17.8608 29.6204 17.7528 29.7664 17.6078 29.8904C17.4518 30.0154 17.2908 30.1034 17.1248 30.1544C16.9378 30.2174 16.7458 30.2484 16.5488 30.2484H14.0428V27.4924H16.5488ZM11.1928 0.8564L11.3498 0.9804C12.1998 0.9804 12.7608 1.0904 13.0298 1.3084C13.2698 1.4834 13.4448 1.6714 13.5598 1.8684C13.7358 2.1794 13.8238 2.5944 13.8238 3.1134C13.8238 4.0894 13.7408 5.6974 13.5748 7.9394L13.1238 14.3694C12.9788 16.2474 12.8548 17.5554 12.7498 18.2924C12.6778 18.8114 12.5478 19.2214 12.3608 19.5214C12.2468 19.6984 12.0698 19.8854 11.8318 20.0824C11.5298 20.3004 10.9698 20.4094 10.1508 20.4094L9.96376 20.5334L9.86976 21.0944L9.93276 21.2344L11.6918 21.1254C12.6248 21.0634 13.2118 21.0324 13.4508 21.0324H14.0428C14.4468 21.0324 15.4588 21.1004 17.0778 21.2344L17.1408 21.0944L17.0468 20.5334L16.9218 20.4094C16.5378 20.4094 16.2578 20.3944 16.0818 20.3624C15.8428 20.3114 15.6508 20.2174 15.5058 20.0824C15.2878 19.8964 15.1378 19.7084 15.0548 19.5214C14.9088 19.2214 14.8358 18.8114 14.8358 18.2924C14.8358 17.1504 14.9088 15.6304 15.0548 13.7304L15.5058 7.9084C15.6508 5.6554 15.7548 4.2444 15.8168 3.6744L22.2318 20.6274H23.5688C24.2968 18.9254 25.5528 15.8374 27.3368 11.3644C29.3608 6.3304 30.3998 3.7464 30.4508 3.6114C30.5968 4.6904 30.8818 8.2764 31.3068 14.3694C31.4108 16.0294 31.4628 17.3374 31.4628 18.2924C31.4628 18.8114 31.3958 19.2214 31.2608 19.5214C31.1778 19.6984 31.0368 19.8854 30.8398 20.0824C30.5908 20.3004 30.0298 20.4094 29.1588 20.4094L29.0338 20.5334L28.9408 21.0944L29.0338 21.2344C29.2418 21.2244 29.8338 21.1884 30.8088 21.1254C31.7538 21.0634 32.3448 21.0324 32.5838 21.0324H33.1758C33.5798 21.0324 34.7638 21.1004 36.7248 21.2344L36.7558 21.0944L36.6618 20.5334L36.4908 20.4094C35.6408 20.4094 35.0738 20.3004 34.7948 20.0824C34.5658 19.9054 34.3948 19.7194 34.2798 19.5214C34.1048 19.2214 33.9798 18.8114 33.9068 18.2924C33.7818 17.4934 33.6318 15.9734 33.4558 13.7304L33.0818 7.9084C32.9158 5.5944 32.8328 3.9954 32.8328 3.1134C32.8328 2.6054 32.9258 2.1894 33.1128 1.8684C33.2268 1.6714 33.3988 1.4834 33.6268 1.3084C33.8758 1.0904 34.4308 0.9804 35.2928 0.9804L35.4478 0.8564L35.5578 0.2954L35.4798 0.1714C33.5278 0.2954 32.3508 0.3574 31.9448 0.3574H30.8088C30.5498 0.3574 30.1918 0.3164 29.7338 0.2334L29.5788 0.3574C29.3608 1.8624 28.3128 4.9974 26.4348 9.7614C24.7218 14.1094 23.6998 16.5174 23.3678 16.9844C22.5168 15.0334 21.9198 13.5694 21.5768 12.5944L19.4128 6.7404C18.7698 5.0184 18.3078 3.7724 18.0268 3.0044C17.5398 1.6654 17.2758 0.7724 17.2338 0.3264L17.0778 0.2334C16.5798 0.3164 16.1588 0.3574 15.8168 0.3574H14.7118C14.4628 0.3574 13.8708 0.3324 12.9378 0.2794C11.9608 0.2184 11.3698 0.1824 11.1618 0.1714L11.1008 0.2954L11.1928 0.8564ZM4.20276 0.3574H3.61176C3.36276 0.3574 2.77176 0.3324 1.83676 0.2794C0.860756 0.2184 0.269756 0.1824 0.0627559 0.1714L-0.000244141 0.2954L0.0937559 0.8564L0.248756 0.9804C1.10076 0.9804 1.66076 1.0904 1.93076 1.3084C2.13776 1.4944 2.29376 1.6914 2.39776 1.8984C2.55276 2.2104 2.65076 2.6154 2.69276 3.1134C2.75576 3.7574 2.78576 5.3654 2.78576 7.9394V14.3694C2.78576 16.1334 2.76576 17.4404 2.72476 18.2924C2.68276 18.8114 2.57876 19.2214 2.41276 19.5214C2.30976 19.6984 2.14876 19.8854 1.93076 20.0824C1.66076 20.3004 1.10076 20.4094 0.248756 20.4094L0.0937559 20.5334L-0.000244141 21.0944L0.0627559 21.2344C0.269756 21.2244 0.860756 21.1884 1.83676 21.1254C2.78076 21.0634 3.37276 21.0324 3.61176 21.0324H4.20276C4.60876 21.0324 5.79076 21.1004 7.75276 21.2344L7.81576 21.0944L7.72176 20.5334L7.59676 20.4094C6.73476 20.4094 6.16476 20.3004 5.88476 20.0824C5.66676 19.8854 5.51076 19.6984 5.41776 19.5214C5.25176 19.2214 5.15176 18.8114 5.12176 18.2924C5.05976 17.3164 5.02776 15.7964 5.02776 13.7304V7.9084C5.02776 5.4894 5.05976 3.8924 5.12176 3.1134C5.15176 2.5944 5.25176 2.1794 5.41776 1.8684C5.51076 1.6914 5.66676 1.5054 5.88476 1.3084C6.16476 1.0904 6.73476 0.9804 7.59676 0.9804L7.72176 0.8564L7.81576 0.2954L7.75276 0.1714C5.79076 0.2954 4.60876 0.3574 4.20276 0.3574ZM118.301 0.3574C118.062 0.3574 117.554 0.3324 116.775 0.2794C115.81 0.2074 115.307 0.1714 115.265 0.1714L115.203 0.2954L115.296 0.8564L115.452 0.9804C116.282 0.9804 116.842 1.0904 117.133 1.3084C117.59 1.6494 117.855 2.2524 117.928 3.1134C117.969 3.7574 117.989 5.3654 117.989 7.9394V14.3694C117.989 16.5594 117.969 17.8664 117.928 18.2924C117.864 18.8324 117.751 19.2574 117.585 19.5684C117.481 19.7554 117.33 19.9274 117.133 20.0824C116.936 20.2174 116.697 20.3114 116.417 20.3624C116.209 20.3944 115.888 20.4094 115.452 20.4094L115.296 20.5334L115.203 21.0944L115.265 21.2344C115.462 21.2244 116.054 21.1884 117.04 21.1254C117.974 21.0634 118.561 21.0324 118.799 21.0324H119.406C119.811 21.0324 120.905 21.1004 122.691 21.2344L122.753 21.0944L122.659 20.5334L122.504 20.4094C121.653 20.4094 121.082 20.3004 120.791 20.0824C120.356 19.7814 120.097 19.1854 120.014 18.2924C119.941 17.6384 119.904 16.1174 119.904 13.7304V7.9084C119.904 5.8214 119.92 4.5044 119.95 3.9544L131.331 20.8134L131.643 21.2034L133.48 21.3274L133.729 21.1564C133.646 20.0244 133.588 19.0814 133.558 18.3234C133.526 17.2964 133.511 15.6824 133.511 13.4814V7.9084C133.511 5.4894 133.542 3.8924 133.604 3.1134C133.646 2.5734 133.734 2.1584 133.868 1.8684C133.973 1.6604 134.128 1.4744 134.336 1.3084C134.585 1.0904 135.146 0.9804 136.017 0.9804L136.173 0.8564L136.235 0.2954L136.204 0.1714C134.989 0.2954 133.998 0.3574 133.231 0.3574H131.735C131.508 0.3574 131.02 0.3324 130.273 0.2794C129.369 0.2074 128.876 0.1714 128.793 0.1714L128.732 0.2954L128.824 0.8564L128.949 0.9804C129.821 0.9804 130.392 1.0904 130.661 1.3084C130.869 1.4944 131.026 1.6814 131.128 1.8684C131.284 2.1794 131.383 2.5944 131.425 3.1134C131.486 4.0784 131.518 5.6874 131.518 7.9394V14.3694C131.518 15.6354 131.508 16.4654 131.486 16.8594C130.708 15.8224 129.936 14.7694 129.167 13.6994C127.673 11.6234 126.261 9.5274 124.933 7.4104C123.365 4.8784 122.509 3.4974 122.364 3.2694C121.503 1.8064 120.999 0.8244 120.854 0.3264L120.698 0.2334C120.199 0.3164 119.77 0.3574 119.406 0.3574H118.301ZM97.9528 0.1714L97.8918 0.2954L97.9848 0.8564L98.1408 0.9804C98.9708 0.9804 99.5298 1.0904 99.8208 1.3084C100.05 1.5154 100.216 1.7074 100.319 1.8834C100.485 2.1944 100.584 2.6054 100.616 3.1134C100.657 3.7574 100.678 5.3654 100.678 7.9394V14.3694C100.678 16.1334 100.657 17.4404 100.616 18.2924C100.564 18.8114 100.454 19.2214 100.288 19.5214C100.195 19.6984 100.039 19.8854 99.8208 20.0824C99.5298 20.3004 98.9708 20.4094 98.1408 20.4094L97.9848 20.5334L97.8918 21.0944L97.9528 21.2344C98.1608 21.2244 98.7528 21.1884 99.7288 21.1254C100.662 21.0634 101.249 21.0324 101.487 21.0324H107.886C108.622 21.0324 110.138 21.0734 112.432 21.1564L112.696 20.8454L113.257 16.8294H112.432L112.307 16.9534C112.017 18.1364 111.596 18.8524 111.046 19.1024C110.444 19.3824 108.893 19.5214 106.392 19.5214H103.714C103.485 19.5214 103.324 19.4754 103.231 19.3824C103.127 19.2994 103.075 19.1434 103.075 18.9154C103.003 18.1464 102.956 17.4564 102.936 16.8444C102.925 16.3664 102.92 15.3284 102.92 13.7304V10.6644C103.812 10.6744 105.026 10.6854 106.563 10.6954C107.693 10.7364 108.368 10.8714 108.587 11.1004C109.002 11.5664 109.209 12.1174 109.209 12.7504L109.334 12.8434L109.909 12.9054L110.034 12.8434C109.992 12.2104 109.961 11.7434 109.941 11.4424C109.9 10.9134 109.878 10.4404 109.878 10.0254C109.878 9.6624 109.9 9.2524 109.941 8.7954C109.983 8.2764 110.014 7.8564 110.034 7.5344L109.909 7.4734L109.364 7.5344L109.209 7.6904C109.209 7.9714 109.147 8.2144 109.023 8.4224C108.971 8.4944 108.825 8.6604 108.587 8.9204C108.379 9.1804 107.693 9.3414 106.531 9.4024C104.975 9.4244 103.771 9.4444 102.92 9.4654V7.9084C102.92 5.8854 102.951 4.2864 103.013 3.1134L103.075 1.8684H106.111C108.644 1.8684 110.143 1.9564 110.61 2.1324C111.088 2.3094 111.358 2.8854 111.42 3.8604L111.545 3.9844H112.338L112.463 0.5444L112.307 0.2334C109.505 0.3164 107.735 0.3574 106.999 0.3574H101.815C101.441 0.3574 100.761 0.3324 99.7758 0.2794C98.7678 0.2184 98.1608 0.1824 97.9528 0.1714ZM80.2368 0.8564L80.3928 0.9804C81.2438 0.9804 81.8038 1.0904 82.0738 1.3084C82.3027 1.5154 82.4688 1.7074 82.5718 1.8834C82.7378 2.1944 82.8368 2.6054 82.8678 3.1134C82.9088 3.7574 82.9308 5.3654 82.9308 7.9394V14.3694C82.9308 16.1334 82.9088 17.4404 82.8678 18.2924C82.8258 18.8114 82.7228 19.2214 82.5568 19.5214C82.4528 19.6984 82.2918 19.8854 82.0738 20.0824C81.8038 20.3004 81.2438 20.4094 80.3928 20.4094L80.2368 20.5334L80.1438 21.0944L80.2057 21.2344C80.4137 21.2244 81.0048 21.1884 81.9808 21.1254C82.9248 21.0634 83.5168 21.0324 83.7558 21.0324H90.1388C90.8748 21.0324 92.3958 21.0734 94.6998 21.1564L94.9488 20.8454L95.5088 16.8294H94.6998L94.5598 16.9534C94.2688 18.1364 93.8538 18.8524 93.3138 19.1024C92.7128 19.3824 91.1598 19.5214 88.6588 19.5214H85.9658C85.7378 19.5214 85.5768 19.4754 85.4837 19.3824C85.3798 19.2994 85.3278 19.1434 85.3268 18.9154C85.2548 18.1464 85.2088 17.4564 85.1878 16.8444C85.1777 16.3664 85.1718 15.3284 85.1718 13.7304V10.6644C86.0648 10.6744 87.2788 10.6854 88.8158 10.6954C89.9458 10.7364 90.6208 10.8714 90.8388 11.1004C91.2538 11.5664 91.4608 12.1174 91.4608 12.7504L91.6018 12.8434L92.1618 12.9054L92.2868 12.8434C92.2448 12.2104 92.2138 11.7434 92.1927 11.4424C92.1507 10.9134 92.1308 10.4404 92.1308 10.0254C92.1308 9.6624 92.1507 9.2524 92.1927 8.7954C92.2337 8.2764 92.2658 7.8564 92.2868 7.5344L92.1618 7.4734L91.6328 7.5344L91.4608 7.6904C91.4608 7.9714 91.3997 8.2144 91.2758 8.4224C91.2228 8.4944 91.0768 8.6604 90.8388 8.9204C90.6308 9.1804 89.9458 9.3414 88.7838 9.4024C87.2368 9.4244 86.0328 9.4444 85.1718 9.4654V7.9084C85.1718 5.8854 85.2028 4.2864 85.2658 3.1134L85.3268 1.8684H88.3628C90.8958 1.8684 92.4007 1.9564 92.8788 2.1324C93.3457 2.3094 93.6148 2.8854 93.6878 3.8604L93.8128 3.9844H94.6068L94.7318 0.5444L94.5598 0.2334C91.7578 0.3164 89.9878 0.3574 89.2508 0.3574H84.0667C83.6928 0.3574 83.0138 0.3324 82.0268 0.2794C81.0208 0.2184 80.4137 0.1824 80.2057 0.1714L80.1438 0.2954L80.2368 0.8564ZM72.7488 0.3114C71.6278 0.1044 70.6418 0.000399947 69.7908 0.000399947C66.4388 0.000399947 63.7978 1.0584 61.8668 3.1764C60.0708 5.1474 59.1738 7.6954 59.1738 10.8194C59.1738 13.8394 60.0198 16.3204 61.7108 18.2614C63.5488 20.3474 66.0748 21.3904 69.2928 21.3904C70.6838 21.3904 71.9398 21.2814 73.0608 21.0634C73.6728 20.9384 74.6578 20.6694 76.0188 20.2544L76.1428 20.0824C76.0798 19.8964 76.0498 19.4234 76.0498 18.6664C76.0498 17.6064 76.0798 16.4914 76.1428 15.3184C76.1738 14.6544 76.3148 14.1564 76.5638 13.8234C76.8428 13.4504 77.2738 13.2644 77.8558 13.2644L78.0108 13.1234L78.0728 12.3764L78.0108 12.2514C76.5578 12.3764 75.6348 12.4384 75.2388 12.4384H74.2898C74.0408 12.4384 73.4648 12.4124 72.5618 12.3604C71.6178 12.2984 71.0408 12.2624 70.8338 12.2514L70.7728 12.3764L70.8648 13.0614L71.0218 13.2014C72.0268 13.2014 72.6708 13.3054 72.9508 13.5134C73.4078 13.9064 73.6728 14.5094 73.7448 15.3184C73.7868 15.8584 73.8078 16.8184 73.8078 18.1984C73.8078 18.5724 73.7248 18.7904 73.5588 18.8524C72.4378 19.2994 71.1408 19.5214 69.6668 19.5214C67.1958 19.5214 65.2558 18.7494 63.8438 17.2024C62.4118 15.6354 61.6958 13.4664 61.6958 10.6954C61.6958 9.0864 61.9448 7.6284 62.4428 6.3204C62.9618 4.9714 63.7038 3.9014 64.6688 3.1134C65.8618 2.1584 67.4968 1.6814 69.5728 1.6814C70.9838 1.6814 72.1258 1.8574 72.9978 2.2104C74.0878 2.6464 74.6948 3.3474 74.8188 4.3124L74.9438 4.4054H75.8308L76.2518 1.5574L76.1738 1.2764C75.1468 0.8714 74.0048 0.5504 72.7488 0.3114ZM49.9728 0.000399947H49.6308L47.7628 0.9494C47.5238 1.5824 46.5948 3.9124 44.9758 7.9394C42.5058 14.2914 41.1358 17.7424 40.8648 18.2924C40.4298 19.2264 39.9368 19.8384 39.3868 20.1294C39.0438 20.3154 38.5258 20.4094 37.8298 20.4094L37.6738 20.5334L37.6118 21.0944L37.6438 21.2344C38.0368 21.2134 39.0808 21.1464 40.7728 21.0324H41.3638C41.7688 21.0324 42.9008 21.1004 44.7578 21.2344L44.8198 21.0944L44.7268 20.5334L44.5708 20.4094C43.8858 20.4094 43.4138 20.3374 43.1538 20.1914C42.8118 20.0054 42.6408 19.6314 42.6408 19.0704C42.6408 18.6554 42.8068 17.9704 43.1388 17.0154C43.6268 15.7084 44.0258 14.6124 44.3378 13.7304L48.4468 2.7244L52.4948 13.7304C52.8168 14.6124 53.2218 15.7084 53.7098 17.0154C54.0418 17.9704 54.2078 18.6554 54.2078 19.0704C54.2078 19.6314 54.0358 20.0054 53.6938 20.1914C53.4348 20.3374 52.9618 20.4094 52.2768 20.4094L52.1518 20.5334L52.0588 21.0944L52.1208 21.2344C52.3288 21.2244 52.9258 21.1884 53.9118 21.1254C54.8658 21.0634 55.4638 21.0324 55.7018 21.0324H56.7448C57.1398 21.0324 58.1828 21.1004 59.8738 21.2344L59.9368 21.0944L59.8438 20.5334L59.6878 20.4094C58.9918 20.4094 58.4678 20.3154 58.1148 20.1294C57.5548 19.8384 57.0678 19.2264 56.6518 18.2924C56.3708 17.6894 55.8728 16.3824 55.1568 14.3694L49.9728 0.000399947Z" fill="#1D1D1B"/>
<path fill-rule="evenodd" clip-rule="evenodd" d="M79.91 33.9379H80.58V26.9169H79.91V33.9379ZM72.142 26.9169H71.473V33.9379H72.142V30.5439H76.314V33.9379H76.968V26.9169H76.314V29.9679H72.142V26.9169ZM111.622 27.3529C111.414 27.2079 111.186 27.0989 110.937 27.0259C110.688 26.9529 110.413 26.9169 110.112 26.9169H106.905V33.9379H107.574V30.8249H110.112C110.434 30.8029 110.678 30.8559 110.844 30.9799C111.03 31.1049 111.171 31.2599 111.264 31.4479C111.357 31.6339 111.42 31.8519 111.451 32.1009L111.56 33.4089C111.56 33.5119 111.575 33.6109 111.606 33.7049C111.627 33.7979 111.658 33.8749 111.7 33.9379H112.432C112.359 33.8549 112.302 33.7359 112.261 33.5799C112.25 33.5279 112.219 33.3619 112.167 33.0819L112.104 32.1479C112.104 31.9609 112.079 31.7639 112.027 31.5559C111.975 31.3699 111.907 31.2079 111.824 31.0739C111.73 30.9389 111.606 30.8299 111.451 30.7469C111.295 30.6529 111.108 30.5909 110.891 30.5599V30.5439C111.326 30.4509 111.663 30.2379 111.902 29.9059C112.131 29.5839 112.245 29.2009 112.245 28.7539C112.245 28.4219 112.187 28.1469 112.073 27.9289C111.97 27.7099 111.819 27.5189 111.622 27.3529ZM110.065 27.4929C110.574 27.4929 110.953 27.6179 111.202 27.8669C111.451 28.1159 111.575 28.4529 111.575 28.8779C111.575 29.1269 111.534 29.3199 111.451 29.4549C111.378 29.6209 111.269 29.7659 111.124 29.8899C110.968 30.0149 110.808 30.1029 110.641 30.1549C110.476 30.2169 110.283 30.2489 110.065 30.2489H107.574V27.4929H110.065ZM88.192 28.0059C88.058 27.7479 87.87 27.5189 87.632 27.3219C87.403 27.1349 87.129 26.9949 86.807 26.9019C86.475 26.8189 86.143 26.7769 85.81 26.7769C85.312 26.7769 84.912 26.8439 84.611 26.9789C84.31 27.1029 84.061 27.2749 83.864 27.4929C83.678 27.7009 83.554 27.9179 83.49 28.1469C83.429 28.3849 83.397 28.5879 83.397 28.7539C83.397 29.0129 83.438 29.2419 83.522 29.4389C83.604 29.6249 83.725 29.7869 83.88 29.9209C84.015 30.0559 84.181 30.1659 84.378 30.2489L86.542 30.8249C86.636 30.8449 86.802 30.8969 87.04 30.9799C87.217 31.0419 87.372 31.1209 87.507 31.2139C87.663 31.3169 87.777 31.4419 87.85 31.5869C87.943 31.7319 87.99 31.8989 87.99 32.0849C87.99 32.3549 87.928 32.5729 87.803 32.7389C87.688 32.9049 87.533 33.0559 87.336 33.1909C87.118 33.3159 86.916 33.3989 86.729 33.4399C86.49 33.4919 86.293 33.5179 86.138 33.5179C85.826 33.5179 85.519 33.4869 85.219 33.4239C84.97 33.3729 84.726 33.2689 84.487 33.1129C84.301 32.9879 84.14 32.7959 84.005 32.5369C83.891 32.2779 83.833 31.9759 83.833 31.6339H83.164C83.153 32.0489 83.211 32.4169 83.335 32.7389C83.471 33.0509 83.662 33.3049 83.911 33.5019C84.181 33.6999 84.487 33.8439 84.829 33.9379C85.172 34.0319 85.551 34.0779 85.966 34.0779C86.402 34.0779 86.76 34.0419 87.04 33.9689C87.331 33.8969 87.575 33.7979 87.771 33.6729C87.948 33.5589 88.109 33.4239 88.255 33.2689C88.368 33.1019 88.457 32.9519 88.518 32.8169C88.571 32.6819 88.607 32.5419 88.628 32.3969L88.659 32.0849C88.659 31.7949 88.612 31.5459 88.518 31.3379C88.426 31.1409 88.291 30.9689 88.114 30.8249C88 30.7199 87.809 30.6009 87.538 30.4659C87.32 30.3739 87.087 30.2939 86.838 30.2329L84.721 29.6879C84.555 29.6049 84.44 29.5329 84.378 29.4699C84.285 29.3969 84.207 29.2929 84.144 29.1589C84.093 29.0339 84.066 28.8939 84.066 28.7389C84.066 28.4789 84.113 28.2609 84.207 28.0839C84.31 27.8979 84.44 27.7519 84.596 27.6489C84.772 27.5439 84.96 27.4669 85.156 27.4159C85.395 27.3629 85.618 27.3369 85.826 27.3369C86.085 27.3369 86.324 27.3739 86.542 27.4459C86.75 27.5079 86.947 27.6069 87.134 27.7419C87.331 27.9079 87.471 28.0799 87.554 28.2559C87.668 28.4629 87.73 28.6969 87.741 28.9569H88.41C88.41 28.5729 88.338 28.2559 88.192 28.0059ZM96.007 27.4929V26.9169H90.449V27.4929H92.879V33.9379H93.548V27.4929H96.007ZM99.635 27.0729C99.22 27.2699 98.872 27.5399 98.592 27.8819C98.322 28.2039 98.114 28.5929 97.969 29.0489C97.834 29.4639 97.767 29.9269 97.767 30.4349C97.767 30.9229 97.834 31.3849 97.969 31.8209C98.114 32.2779 98.322 32.6619 98.592 32.9729C98.872 33.3159 99.22 33.5849 99.635 33.7829C100.029 33.9799 100.512 34.0779 101.083 34.0779C101.643 34.0779 102.126 33.9799 102.53 33.7829C102.945 33.5749 103.288 33.3049 103.558 32.9729C103.827 32.6619 104.035 32.2779 104.181 31.8209C104.315 31.3849 104.383 30.9229 104.383 30.4349C104.383 29.9269 104.315 29.4639 104.181 29.0489C104.035 28.5929 103.827 28.2039 103.558 27.8819C103.288 27.5499 102.945 27.2799 102.53 27.0729C102.126 26.8749 101.643 26.7769 101.083 26.7769C100.512 26.7769 100.029 26.8749 99.635 27.0729ZM99.059 28.3019C99.287 28.0119 99.562 27.7779 99.884 27.6019C100.216 27.4249 100.616 27.3369 101.083 27.3369C101.539 27.3369 101.934 27.4249 102.266 27.6019C102.588 27.7779 102.862 28.0119 103.091 28.3019C103.309 28.6039 103.465 28.9359 103.558 29.2979C103.661 29.6519 103.714 30.0309 103.714 30.4349C103.714 30.8299 103.661 31.2039 103.558 31.5559C103.465 31.9189 103.309 32.2509 103.091 32.5519C102.862 32.8529 102.588 33.0859 102.266 33.2519C101.934 33.4289 101.539 33.5179 101.083 33.5179C100.616 33.5179 100.216 33.4289 99.884 33.2519C99.562 33.0859 99.287 32.8529 99.059 32.5519C98.841 32.2509 98.685 31.9189 98.592 31.5559C98.488 31.2039 98.435 30.8299 98.435 30.4349C98.435 30.0309 98.488 29.6519 98.592 29.2979C98.685 28.9359 98.841 28.6039 99.059 28.3019ZM120.2 26.9169H119.406L117.102 30.4819L114.798 26.9169H114.004L116.759 31.0419V33.9379H117.429V31.0419L120.2 26.9169Z" fill="white"/>
</g>
</svg>
