<svg width="68" height="60" viewBox="0 0 68 60" fill="none" xmlns="http://www.w3.org/2000/svg">
<mask id="mask0_780_15970" style="mask-type:alpha" maskUnits="userSpaceOnUse" x="4" y="0" width="60" height="60">
<ellipse cx="33.9153" cy="29.9145" rx="29.5285" ry="29.9145" fill="black"/>
</mask>
<g mask="url(#mask0_780_15970)">
<path d="M63.4438 29.9145C63.4438 46.4359 50.2234 59.8291 33.9153 59.8291C17.6071 59.8291 4.38672 46.4359 4.38672 29.9145C4.38672 13.3932 17.6071 0 33.9153 0C50.2234 0 63.4438 13.3932 63.4438 29.9145Z" fill="white"/>
</g>
<path fill-rule="evenodd" clip-rule="evenodd" d="M32.8256 8.32808C39.7352 8.32808 44.9362 10.8194 48.2864 16.0829L44.0568 18.2847C43.7218 18.4602 43.948 18.3461 43.8977 18.3725C43.8391 18.0742 40.824 16.539 39.1741 16.1267C37.8016 15.7876 36.3966 15.614 34.9864 15.6092C31.6081 15.5972 28.2954 16.5855 25.4302 18.4602C22.6581 20.2619 20.469 22.8972 19.1487 26.022C19.1173 26.0846 19.0894 26.149 19.0649 26.2149C17.4988 31.2064 22.6077 34.5399 23.06 37.3646C24.0817 43.6895 22.1052 45.5317 18.7718 47.6722C22.9595 35.9347 12.8086 34.4522 12.8086 24.3903C12.8086 14.3284 22.3397 8.31055 32.9093 8.31055L32.8256 8.32808Z" fill="#ED2633"/>
<path fill-rule="evenodd" clip-rule="evenodd" d="M34.434 42.4082C34.9198 45.3206 35.3804 48.7243 35.8746 51.5578C32.0722 51.8161 28.2549 51.6898 24.4758 51.1806C23.9984 51.1104 24.0989 49.6191 24.5344 49.4261C26.2095 48.5489 29.0403 48.9963 29.1911 44.3381C31.0433 44.0802 32.8267 43.4327 34.434 42.4345V42.4082Z" fill="#2765A0"/>
<path fill-rule="evenodd" clip-rule="evenodd" d="M36.1861 22.671C38.0626 22.6295 39.9254 23.0132 41.6471 23.796C43.3688 24.5788 44.9086 25.7422 46.1611 27.2063C45.4108 27.5259 44.6926 27.9226 44.017 28.3906C41.3744 30.2207 39.0348 32.4904 37.0906 35.1102L36.9231 34.9962C36.1637 34.5147 35.262 34.3416 34.3889 34.5099C33.5158 34.6781 32.7319 35.1759 32.1859 35.909C31.6398 36.6421 31.3694 37.5595 31.4259 38.4875C31.4824 39.4154 31.8619 40.2894 32.4926 40.9439L32.5847 41.0316C32.8649 41.3067 33.1842 41.5346 33.5311 41.7071C31.6634 42.6457 30.1307 43.2071 29.1843 43.058C28.7823 42.8475 29.1257 42.0843 28.7572 41.8387C27.3448 40.9606 26.1677 39.7221 25.3359 38.2387C24.504 36.7554 24.0444 35.0755 24 33.3558C24 27.452 29.4523 22.671 36.1861 22.671Z" fill="#2765A0"/>
<path fill-rule="evenodd" clip-rule="evenodd" d="M44.7105 29.4963C40.8997 32.128 39.1577 34.5931 37.1727 37.0932C36.9742 36.7064 36.6814 36.3818 36.324 36.1523C35.9666 35.9227 35.5575 35.7966 35.1384 35.7867C34.7193 35.7768 34.3052 35.8835 33.9384 36.096C33.5715 36.3084 33.265 36.6189 33.05 36.9959C32.8351 37.3729 32.7195 37.8028 32.715 38.2419C32.7105 38.6809 32.8172 39.1134 33.0243 39.4951C33.2314 39.8769 33.5314 40.1943 33.8939 40.415C34.2563 40.6356 34.6681 40.7517 35.0873 40.7513C36.485 40.707 37.8567 40.3448 39.1074 39.6898C42.0723 38.2073 45.682 35.5054 49.2918 35.4703C51.8798 35.4703 50.9668 34.672 50.2549 33.3298C49.6017 32.1631 48.8814 30.6279 49.1494 29.8209C49.8194 27.7857 49.7273 27.1892 47.868 27.9524C46.7692 28.3428 45.7179 28.8669 44.7356 29.5139L44.7105 29.4963Z" fill="#2765A0"/>
<path fill-rule="evenodd" clip-rule="evenodd" d="M40.1884 40.7168C40.7411 42.4099 41.9555 44.2696 43.4882 44.9188C43.4882 45.1001 43.4882 45.293 43.4882 45.4977C43.4882 47.4891 43.7562 49.1207 45.1633 50.1383C46.9221 51.3928 47.835 51.9367 43.4463 51.8314C38.6054 51.7086 35.9086 46.8575 35.7578 41.9888C37.2761 41.7298 38.764 41.3034 40.1967 40.7168H40.1884Z" fill="#2765A0"/>
<path fill-rule="evenodd" clip-rule="evenodd" d="M34.9286 16.9513C37.5754 16.943 40.1867 17.5892 42.5501 18.8373L42.2235 19.7146C42.0394 19.6075 41.8459 19.5193 41.6456 19.4514C40.9487 19.1503 40.1667 19.1491 39.469 19.448C38.7714 19.7468 38.2143 20.3217 37.9186 21.0479C37.8751 21.1849 37.8442 21.3259 37.8264 21.469C37.2701 21.4073 36.7109 21.378 36.1514 21.3813C32.7232 21.3373 29.3889 22.5542 26.7292 24.8201C26.436 25.0745 26.1513 25.3464 25.8916 25.6271C25.7214 25.3715 25.5017 25.1563 25.2467 24.9955C24.5773 24.6373 23.8001 24.5699 23.0835 24.808C22.367 25.0461 21.769 25.5706 21.4192 26.2675C21.2827 26.4906 21.1703 26.7289 21.0842 26.9781L20.1797 26.6623C21.4661 23.7203 23.5447 21.2358 26.1603 19.5138C28.7759 17.7918 31.8146 16.9073 34.9035 16.9688L34.9286 16.9513Z" fill="#2765A0"/>
</svg>
