<?xml version="1.0" encoding="utf-8"?>
<!-- Generator: Adobe Illustrator 27.0.0, SVG Export Plug-In . SVG Version: 6.00 Build 0)  -->
<svg version="1.1" id="Capa_1" xmlns="http://www.w3.org/2000/svg" xmlns:xlink="http://www.w3.org/1999/xlink" x="0px" y="0px"
	 viewBox="0 0 400 400" style="enable-background:new 0 0 400 400;" xml:space="preserve">
<style type="text/css">
	.st0{fill-rule:evenodd;clip-rule:evenodd;}
</style>
<g>
	<path class="st0" d="M267.9,91c16,0,30.2,7.1,40.8,19.5s16,28.4,16,46.1c0,42.6-37.3,74.5-95.9,124.1c-8.9,7.1-17.8,16-28.4,24.8
		c-10.7-8.9-19.5-17.7-30.2-24.8c-56.8-49.6-95.9-81.6-95.9-124.1c0-17.7,7.1-33.7,17.8-46.1C101,98.1,116.9,91,132.9,91l0,0
		c23.1,0,37.3,14.2,46.2,26.6c5.3,7.1,17.8,30.1,21.3,30.1s14.2-23,19.5-30.1C228.8,105.1,243,91,266.1,91H267.9L267.9,91z
		 M132.9,75c-21.3,0-40.8,8.9-55,24.8c-12.4,14.2-19.5,35.5-19.5,56.7c0,23,8.9,44.3,28.4,69.1c17.8,21.3,42.6,42.6,72.8,67.4
		c10.7,8.9,39.1,31.9,40.8,31.9s28.4-23,40.8-31.9c28.4-24.8,53.3-47.9,71-67.4c21.3-24.8,30.2-46.1,30.2-69.1
		c0-21.3-7.1-42.6-21.3-56.7c-14.2-16-33.7-24.8-53.3-24.8c-1.8,0-1.8,0-1.8,0c-30.2,0-47.9,17.7-58.6,31.9
		c-3.6,3.5-5.3,8.9-7.1,12.4c-1.8-3.5-5.3-8.9-7.1-12.4C182.6,92.7,163.1,75,132.9,75L132.9,75L132.9,75z"/>
</g>
</svg>
