<?xml version="1.0" encoding="utf-8"?>
<!-- Generator: Adobe Illustrator 27.0.0, SVG Export Plug-In . SVG Version: 6.00 Build 0)  -->
<svg version="1.1" id="Capa_1" xmlns="http://www.w3.org/2000/svg" xmlns:xlink="http://www.w3.org/1999/xlink" x="0px" y="0px"
	 viewBox="0 0 400 400" style="enable-background:new 0 0 400 400;" xml:space="preserve">
<g>
	<path d="M31.8,217.1v-55.8h11.1v55.8H31.8z"/>
	<path d="M101.6,217.1v-36.6l-14.7,27.3h-6.2L66,180.4v36.6H54.9v-55.8h11.9L83.8,193l17.1-31.7h11.9v55.8H101.6z"/>
	<path d="M140.3,161.3h11.3l21.1,55.8h-11.5l-7.3-21.5h-16.1l-7.1,21.5h-11.5L140.3,161.3z M153.8,195.5l-7.9-23l-8.2,23H153.8z"/>
	<path d="M200.5,217.4c-3.8,0-7.3-0.7-10.6-2.2c-3.3-1.5-6.2-3.5-8.7-6c-2.5-2.6-4.4-5.7-5.8-9.1c-1.4-3.5-2.1-7.2-2.1-11.2
		c0-3.8,0.7-7.4,2.1-10.8c1.4-3.4,3.4-6.4,5.9-9s5.5-4.6,8.9-6c3.4-1.5,7.1-2.2,11.1-2.2c5.3,0,9.9,1.1,13.8,3.4
		c3.9,2.2,6.8,5.1,8.7,8.8l-8.3,6c-1.5-2.7-3.5-4.8-6.1-6.3c-2.6-1.5-5.4-2.3-8.5-2.3c-3.2,0-6.1,0.9-8.6,2.6
		c-2.4,1.7-4.3,4-5.7,6.8c-1.3,2.8-2,5.9-2,9.3c0,3.5,0.7,6.7,2.2,9.5c1.5,2.8,3.4,5.1,6,6.8c2.6,1.6,5.5,2.4,8.8,2.4
		c5.5,0,10.5-2.5,15-7.6v-3.9H205v-7.9h20.7v28.7h-9.2v-6.3C211.9,215.2,206.5,217.4,200.5,217.4z"/>
	<path d="M275,207.5v9.5h-39.8v-55.8h39.1v9.5h-27.9v13.4h24.1v8.8h-24.1v14.5H275z"/>
	<path d="M323.4,207.5v9.5h-39.8v-55.8h39.1v9.5h-27.9v13.4h24.1v8.8h-24.1v14.5H323.4z"/>
	<path d="M343.3,181.2v35.8h-11.1v-55.8h8.9l29.6,36.8v-36.7h11.1v55.7h-9.3L343.3,181.2z"/>
</g>
</svg>
