<?xml version="1.0" encoding="UTF-8"?>
<svg id="Capa_1" data-name="Capa 1" xmlns="http://www.w3.org/2000/svg" viewBox="0 0 350 96.1">
  <defs>
    <style>
      .cls-1 {
        fill: #fff;
      }

      .cls-2 {
        fill: none;
      }

      .cls-3 {
        fill: #2765a0;
      }
    </style>
  </defs>
  <polygon class="cls-2" points="121.94 34.25 122.1 34.7 122.1 34.7 121.94 34.25"/>
  <path class="cls-2" d="M38.2,73.4h-6v7.2h6c1.2,0,2.1-.3,2.9-1,.7-.7,1.1-1.5,1.1-2.6s-.4-1.9-1.1-2.6c-.7-.6-1.7-1-2.9-1Z"/>
  <polygon class="cls-2" points="122.1 34.7 122.19 34.96 122.1 34.7 122.1 34.7"/>
  <path class="cls-3" d="M261.4,88.9c1.9,0,3.5-.7,4.6-2.1,1.2-1.4,1.7-3.4,1.7-5.7s-.6-4.4-1.7-5.8c-1.2-1.5-2.7-2.2-4.6-2.2s-3.5,.7-4.7,2.2c-1.1,1.4-1.7,3.3-1.7,5.8s.6,4.3,1.7,5.7c1.2,1.4,2.7,2.1,4.7,2.1Z"/>
  <path class="cls-3" d="M173.9,96.1h145.8v-31.2H173.9v31.2Zm125-24.9l6.5,9.6,6.5-9.6h2.6l-7.8,11.6v8.1h-2.6v-8.1l-7.8-11.6h2.6Zm-22.3,19.7v-19.7h8.5c1.9,0,3.5,.5,4.7,1.6,1.2,1,1.7,2.4,1.7,4.2,0,1.1-.3,2.1-.8,2.9-.6,.9-1.4,1.5-2.4,1.9,.7,.5,1.3,1.1,1.7,1.8,.4,.8,.6,1.5,.6,2.4l.1,3.8c0,.2,.1,.5,.4,.9l.1,.2h-2.5l-.1-.1c-.3-.5-.4-.8-.4-1.1l-.1-3.7c0-.9-.4-1.7-1.3-2.3-.8-.6-1.7-.8-2.8-.8h-5v8.1h-2.4v-.1Zm-21.7-17.2c1.6-1.9,3.8-2.8,6.4-2.8s4.8,.9,6.4,2.8c1.6,1.9,2.4,4.4,2.4,7.4s-.8,5.5-2.4,7.3c-1.6,1.8-3.7,2.7-6.4,2.7s-4.8-.9-6.4-2.7-2.4-4.3-2.4-7.3,.8-5.6,2.4-7.4Zm-21.9-2.4h14.8v2.2h-6.2v17.4h-2.5v-17.4h-6.1v-2.2Zm-8.6,11.9c-.8-.4-1.9-.8-3.3-1-1.9-.3-3.5-1-4.8-1.9-1.4-1.1-2.1-2.4-2.1-4s.6-2.9,1.9-3.8c1.2-1,2.9-1.5,5-1.5s3.8,.6,5,1.7c1.3,1.1,1.9,2.7,1.9,4.6h-2.5c-.2-1.2-.7-2.2-1.5-3-.8-.7-1.8-1.1-2.9-1.1-1.3,0-2.4,.3-3.2,.8-.8,.6-1.2,1.3-1.2,2.3s.5,1.8,1.4,2.5c.8,.6,1.8,1,3,1.2,2.1,.4,3.8,.9,5,1.7,1.6,.9,2.4,2.2,2.4,3.8,0,1.9-.7,3.3-2,4.4-1.4,1.1-3.1,1.7-5.4,1.7s-4-.6-5.4-1.9c-1.5-1.5-2.2-3.3-2.2-5.4h2.5c0,1.5,.5,2.7,1.4,3.6s2.1,1.4,3.6,1.4,2.7-.3,3.6-1c.9-.7,1.4-1.6,1.4-2.7,0-1-.5-1.8-1.6-2.4Zm-19.5-12h2.5v19.7h-2.5v-19.7Zm-22,0h2.5v8.1h9.8v-8.1h2.5v19.7h-2.5v-9.3h-9.8v9.3h-2.5v-19.7Z"/>
  <path class="cls-3" d="M287.9,79.6c.7-.7,1.1-1.5,1.1-2.6s-.4-1.9-1.1-2.6c-.7-.6-1.7-1-2.9-1h-6v7.2h6c1.2,0,2.1-.3,2.9-1Z"/>
  <path class="cls-1" d="M224.6,88.3c-.9,.7-2.1,1-3.6,1s-2.7-.5-3.6-1.4-1.4-2.1-1.4-3.6h-2.5c0,2.1,.7,3.9,2.2,5.4,1.4,1.3,3.2,1.9,5.4,1.9s4-.6,5.4-1.7c1.3-1.1,2-2.5,2-4.4,0-1.6-.8-2.9-2.4-3.8-1.2-.8-2.9-1.3-5-1.7-1.2-.2-2.2-.6-3-1.2-.9-.7-1.4-1.5-1.4-2.5s.4-1.7,1.2-2.3c.8-.5,1.9-.8,3.2-.8,1.1,0,2.1,.4,2.9,1.1,.8,.8,1.3,1.8,1.5,3h2.5c0-1.9-.6-3.5-1.9-4.6-1.2-1.1-2.9-1.7-5-1.7s-3.8,.5-5,1.5c-1.3,.9-1.9,2.2-1.9,3.8s.7,2.9,2.1,4c1.3,.9,2.9,1.6,4.8,1.9,1.4,.2,2.5,.6,3.3,1,1.1,.6,1.6,1.4,1.6,2.4,0,1.1-.5,2-1.4,2.7Z"/>
  <path class="cls-1" d="M261.3,91.1c2.7,0,4.8-.9,6.4-2.7,1.6-1.8,2.4-4.3,2.4-7.3s-.8-5.5-2.4-7.4c-1.6-1.9-3.7-2.8-6.4-2.8s-4.8,.9-6.4,2.8c-1.6,1.8-2.4,4.3-2.4,7.4s.8,5.5,2.4,7.3,3.7,2.7,6.4,2.7Zm-4.6-15.8c1.2-1.5,2.8-2.2,4.7-2.2s3.4,.7,4.6,2.2c1.1,1.4,1.7,3.4,1.7,5.8s-.5,4.3-1.7,5.7c-1.1,1.4-2.7,2.1-4.6,2.1-2,0-3.5-.7-4.7-2.1-1.1-1.4-1.7-3.3-1.7-5.7s.6-4.4,1.7-5.8Z"/>
  <polygon class="cls-1" points="185.4 81.6 195.2 81.6 195.2 90.9 197.7 90.9 197.7 71.2 195.2 71.2 195.2 79.3 185.4 79.3 185.4 71.2 182.9 71.2 182.9 90.9 185.4 90.9 185.4 81.6"/>
  <polygon class="cls-1" points="239.1 90.9 241.6 90.9 241.6 73.5 247.8 73.5 247.8 71.3 233 71.3 233 73.5 239.1 73.5 239.1 90.9"/>
  <path class="cls-1" d="M279,82.9h5c1.1,0,2,.2,2.8,.8,.9,.6,1.3,1.4,1.3,2.3l.1,3.7c0,.3,.1,.6,.4,1.1l.1,.1h2.5l-.1-.2c-.3-.4-.4-.7-.4-.9l-.1-3.8c0-.9-.2-1.6-.6-2.4-.4-.7-1-1.3-1.7-1.8,1-.4,1.8-1,2.4-1.9,.5-.8,.8-1.8,.8-2.9,0-1.8-.5-3.2-1.7-4.2-1.2-1.1-2.8-1.6-4.7-1.6h-8.5v19.8h2.4v-8.1Zm0-9.5h6c1.2,0,2.2,.4,2.9,1,.7,.7,1.1,1.5,1.1,2.6s-.4,1.9-1.1,2.6c-.8,.7-1.7,1-2.9,1h-6v-7.2Z"/>
  <polygon class="cls-1" points="304.1 90.9 306.7 90.9 306.7 82.8 314.5 71.2 311.9 71.2 305.4 80.8 298.9 71.2 296.3 71.2 304.1 82.8 304.1 90.9"/>
  <rect class="cls-1" x="204.9" y="71.2" width="2.5" height="19.7"/>
  <polygon points="50.8 90.8 64.3 90.8 64.3 88.5 53.2 88.5 53.2 81.8 63 81.8 63 79.5 53.2 79.5 53.2 73.5 64.3 73.5 64.3 71.2 50.8 71.2 50.8 90.8"/>
  <polygon points="72.6 71.2 70.1 71.2 70.1 90.9 82.9 90.9 82.9 88.7 72.6 88.7 72.6 71.2"/>
  <path d="M43.9,79.9c.5-.8,.8-1.8,.8-2.9,0-1.8-.5-3.2-1.7-4.2-1.2-1.1-2.8-1.6-4.7-1.6h-8.5v19.8h2.4v-8.1h5c1.1,0,2,.2,2.8,.8,.9,.6,1.3,1.4,1.3,2.3l.1,3.7c0,.3,.1,.6,.4,1.1l.1,.1h2.5l-.1-.2c-.3-.4-.4-.7-.4-.9l-.1-3.8c0-.9-.2-1.6-.6-2.4-.4-.7-1-1.3-1.7-1.8,1-.4,1.8-1,2.4-1.9Zm-2.8-.3c-.8,.7-1.7,1-2.9,1h-6v-7.2h6c1.2,0,2.2,.4,2.9,1,.7,.7,1.1,1.5,1.1,2.6s-.4,1.9-1.1,2.6Z"/>
  <polygon points="104.3 86.9 98.9 71.2 96.4 71.2 103 90.9 105.5 90.9 112.2 71.2 109.7 71.2 104.3 86.9"/>
  <path d="M156.4,82.8h5.4c0,1.8-.5,3.3-1.5,4.4-.9,1.1-2.3,1.7-3.9,1.7-1.8,0-3.2-.7-4.3-2.1-1.1-1.4-1.6-3.3-1.6-5.7s.5-4.4,1.6-5.8c1.1-1.5,2.5-2.2,4.3-2.2,1.3,0,2.4,.4,3.4,1.2,1,.8,1.6,1.8,1.8,3.1l2.5-.3c-.4-1.8-1.3-3.3-2.7-4.5-1.5-1.1-3.1-1.7-5-1.7-2.5,0-4.6,.9-6.1,2.8-1.5,1.8-2.3,4.3-2.3,7.4s.7,5.5,2.3,7.3c1.6,1.8,3.6,2.7,6.1,2.7,1.2,0,2.3-.2,3.3-.7s1.9-1.2,2.5-2.1l.4,2.1h1.7v-10.1h-7.9v2.5Z"/>
  <rect x="117.6" y="71.2" width="2.5" height="19.7"/>
  <polygon points="139.4 86.7 129.6 71.2 127.1 71.2 127.1 90.9 129.6 90.9 129.6 75.4 139.4 90.9 141.9 90.9 141.9 71.2 139.4 71.2 139.4 86.7"/>
  <rect x="88.4" y="71.2" width="2.5" height="19.7"/>
  <rect y=".4" width="11.1" height="55.8"/>
  <polygon points="81 56.2 81 .4 69.1 .4 52 32.1 35 .3 23.1 .3 23.1 56.1 34.2 56.1 34.2 19.5 48.9 46.9 55.1 46.9 69.8 19.6 69.8 56.2 81 56.2"/>
  <polygon points="106 34.7 114.1 11.6 121.94 34.25 121.94 34.24 121.94 34.25 122.1 34.7 122.19 34.96 122.19 34.96 122.19 34.96 129.4 56.2 140.9 56.2 119.8 .4 108.5 .4 87.4 56.2 98.9 56.2 106 34.7"/>
  <path d="M184.7,56.3h9.2V27.6h-20.7v7.9h11.6v3.9c-4.5,5.1-9.5,7.6-15,7.6-3.3,0-6.2-.8-8.8-2.4-2.6-1.7-4.5-4-6-6.8-1.5-2.8-2.2-6-2.2-9.5s.7-6.5,2-9.3c1.4-2.8,3.3-5.1,5.7-6.8,2.5-1.7,5.4-2.6,8.6-2.6s5.9,.8,8.5,2.3c2.6,1.5,4.6,3.6,6.1,6.3l8.3-6c-1.9-3.7-4.8-6.6-8.7-8.8-3.9-2.3-8.5-3.4-13.8-3.4-4,0-7.7,.7-11.1,2.2-3.4,1.4-6.4,3.4-8.9,6-2.5,2.6-4.5,5.6-5.9,9-1.4,3.4-2.1,7-2.1,10.8,0,4,.7,7.7,2.1,11.2,1.4,3.4,3.3,6.5,5.8,9.1,2.5,2.5,5.4,4.5,8.7,6,3.3,1.5,6.8,2.2,10.6,2.2,6,0,11.4-2.2,16-6.5v6.3Z"/>
  <polygon points="243.2 46.6 243.2 46.5 214.6 46.5 214.6 32 238.7 32 238.7 23.2 214.6 23.2 214.6 9.8 242.5 9.8 242.5 .3 203.4 .3 203.4 56.1 243.2 56.1 243.2 46.6"/>
  <polygon points="291.6 46.6 291.6 46.5 263 46.5 263 32 287.1 32 287.1 23.2 263 23.2 263 9.8 290.9 9.8 290.9 .3 251.8 .3 251.8 56.1 291.6 56.1 291.6 46.6"/>
  <polygon points="338.9 .4 338.9 37.1 309.3 .3 300.4 .3 300.4 56.1 311.5 56.1 311.5 20.3 340.7 56.1 350 56.1 350 .4 338.9 .4"/>
</svg>